<svg width="528" height="218" viewBox="0 0 528 218" fill="none" xmlns="http://www.w3.org/2000/svg">
<g clip-path="url(#clip0)">
<path opacity="0.4" d="M450.689 59.6653C457.687 59.6653 463.359 54.0039 463.359 47.0203C463.359 40.0366 457.687 34.3752 450.689 34.3752C443.692 34.3752 438.02 40.0366 438.02 47.0203C438.02 54.0039 443.692 59.6653 450.689 59.6653Z" fill="url(#paint0_linear)"/>
<path opacity="0.4" d="M492.576 121.768C471.964 109.671 445.429 116.541 433.308 137.112C421.187 157.684 428.071 184.167 448.683 196.264C469.295 208.361 495.83 201.491 507.95 180.92C520.071 160.348 513.188 133.865 492.576 121.768Z" fill="url(#paint1_linear)"/>
<path opacity="0.4" d="M325.525 117.582C325.458 117.781 325.392 117.979 325.259 118.112C325.126 118.377 325.06 118.576 324.927 118.774C324.795 118.973 324.728 119.172 324.662 119.37C324.596 119.437 324.596 119.503 324.529 119.569C324.463 119.702 324.396 119.834 324.396 119.9C322.405 124.14 319.95 128.445 317.162 132.751C314.839 137.122 312.118 141.494 308.999 145.8C308.733 146.131 308.534 146.462 308.269 146.793C307.472 147.919 306.543 149.045 305.68 150.171C304.818 151.298 303.822 152.49 302.893 153.616C302.628 153.881 302.428 154.212 302.163 154.477C301.964 154.742 301.698 155.007 301.499 155.272C300.371 156.53 299.243 157.789 298.114 159.047C297.65 159.577 297.119 160.107 296.654 160.637L296.588 160.703C294.73 162.691 292.739 164.612 290.748 166.532C290.615 166.665 290.482 166.797 290.349 166.864C290.084 167.062 289.885 167.327 289.619 167.526C288.093 168.983 286.434 170.441 284.841 171.832L284.642 171.964C284.509 172.096 284.376 172.163 284.243 172.295C283.978 172.494 283.779 172.693 283.513 172.891C281.788 174.415 279.996 175.872 278.138 177.329C273.691 180.84 268.979 184.152 264.067 187.331C259.886 190.047 255.572 192.631 251.059 195.081C238.914 201.705 225.706 207.269 211.835 211.177C211.57 211.244 211.371 211.31 211.105 211.376C209.313 211.906 207.521 212.37 205.729 212.833C205.464 212.9 205.265 212.966 204.999 213.032C204.933 213.032 204.867 213.098 204.734 213.098C194.447 215.615 183.894 217.205 173.076 217.801C170.421 217.934 167.766 218 165.112 218C162.523 218 160.068 217.934 157.678 217.735C155.09 217.536 152.634 217.205 150.312 216.808C130.268 213.165 118.189 201.904 109.163 187.331C104.053 179.184 99.8713 169.977 95.8229 160.571C95.4246 159.577 94.9601 158.584 94.5619 157.59C94.23 156.795 93.8982 156 93.5663 155.206C91.6416 150.701 89.6506 146.197 87.5931 141.759C82.35 130.565 76.4432 119.9 68.2799 111.024C55.1389 91.1526 52.8823 71.8109 60.913 56.576C61.1121 56.311 63.2359 53.9264 64.4969 50.9456C73.1248 39.4863 88.3232 30.9415 109.893 27.0997C127.082 24.0527 184.425 9.9438 236.989 14.9117C243.095 15.5079 249.201 16.3027 255.108 17.495C261.877 20.9395 268.249 26.3048 269.178 34.2535C269.244 34.7171 269.244 35.247 269.31 35.777C269.377 39.6188 271.368 41.6722 274.686 42.6658C281.655 44.7854 294.464 42.0696 307.074 40.7449C318.224 39.6188 329.308 39.5526 335.945 45.1829C351.342 58.1657 330.701 106.255 325.525 117.582Z" fill="url(#paint2_linear)"/>
<path d="M251.405 110.484C251.585 110.652 251.765 110.766 251.945 110.826C252.125 110.886 252.317 110.916 252.521 110.916C252.677 110.916 252.827 110.868 252.971 110.772C253.127 110.688 253.277 110.532 253.421 110.304C253.577 110.088 253.733 109.794 253.889 109.422C254.045 109.05 254.219 108.576 254.411 108L250.325 98.622H251.585L255.059 106.866L258.281 98.622H259.451L255.077 109.548C254.897 110.016 254.711 110.406 254.519 110.718C254.339 111.03 254.147 111.282 253.943 111.474C253.751 111.666 253.541 111.798 253.313 111.87C253.097 111.954 252.857 111.996 252.593 111.996C252.053 111.996 251.639 111.852 251.351 111.564L251.405 110.484ZM262.565 102.672H267.821V98.622H269.027V108H267.821V103.698H262.565V108H261.359V98.622H262.565V102.672ZM273.151 106.272L278.749 98.622H279.739V108H278.533V100.494L273.043 108H271.945V98.622H273.151V106.272ZM288.216 98.622H289.584L286.038 103.158L289.89 108H288.522L285.21 103.716H283.878V108H282.672V98.622H283.878V102.762H285.102L288.216 98.622ZM293.822 108.18C293.378 108.18 292.964 108.108 292.58 107.964C292.208 107.808 291.878 107.598 291.59 107.334C291.314 107.07 291.098 106.764 290.942 106.416C290.786 106.056 290.708 105.672 290.708 105.264C290.708 104.856 290.804 104.478 290.996 104.13C291.188 103.782 291.458 103.482 291.806 103.23C292.154 102.978 292.568 102.786 293.048 102.654C293.528 102.51 294.056 102.438 294.632 102.438C295.112 102.438 295.598 102.48 296.09 102.564C296.582 102.648 297.02 102.768 297.404 102.924V102.078C297.404 101.25 297.17 100.596 296.702 100.116C296.234 99.624 295.586 99.378 294.758 99.378C294.278 99.378 293.786 99.474 293.282 99.666C292.778 99.858 292.268 100.134 291.752 100.494L291.32 99.684C292.532 98.868 293.708 98.46 294.848 98.46C296.024 98.46 296.948 98.79 297.62 99.45C298.292 100.11 298.628 101.022 298.628 102.186V106.416C298.628 106.752 298.778 106.92 299.078 106.92V108C298.874 108.036 298.718 108.054 298.61 108.054C298.298 108.054 298.052 107.976 297.872 107.82C297.704 107.664 297.614 107.448 297.602 107.172L297.566 106.434C297.134 106.998 296.588 107.43 295.928 107.73C295.28 108.03 294.578 108.18 293.822 108.18ZM294.11 107.244C294.746 107.244 295.328 107.124 295.856 106.884C296.396 106.644 296.804 106.326 297.08 105.93C297.188 105.822 297.266 105.708 297.314 105.588C297.374 105.456 297.404 105.336 297.404 105.228V103.698C296.996 103.542 296.57 103.422 296.126 103.338C295.694 103.254 295.25 103.212 294.794 103.212C293.93 103.212 293.228 103.392 292.688 103.752C292.148 104.112 291.878 104.586 291.878 105.174C291.878 105.462 291.932 105.732 292.04 105.984C292.16 106.236 292.316 106.458 292.508 106.65C292.712 106.83 292.952 106.974 293.228 107.082C293.504 107.19 293.798 107.244 294.11 107.244ZM300.229 106.974C300.565 106.95 300.859 106.86 301.111 106.704C301.363 106.536 301.579 106.242 301.759 105.822C301.951 105.39 302.113 104.802 302.245 104.058C302.389 103.314 302.527 102.348 302.659 101.16L302.929 98.622H308.437V108H307.231V99.594H304.063L303.811 101.682C303.655 102.93 303.481 103.962 303.289 104.778C303.097 105.582 302.869 106.23 302.605 106.722C302.353 107.202 302.047 107.544 301.687 107.748C301.327 107.94 300.907 108.048 300.427 108.072L300.229 106.974ZM311.354 98.622H312.56V101.952H314.594C315.026 101.952 315.434 102.018 315.818 102.15C316.202 102.282 316.538 102.474 316.826 102.726C317.114 102.978 317.342 103.296 317.51 103.68C317.678 104.052 317.762 104.484 317.762 104.976C317.762 105.468 317.678 105.906 317.51 106.29C317.342 106.662 317.114 106.974 316.826 107.226C316.538 107.478 316.202 107.67 315.818 107.802C315.434 107.934 315.026 108 314.594 108H311.354V98.622ZM314.594 106.956C315.218 106.956 315.698 106.782 316.034 106.434C316.382 106.074 316.556 105.588 316.556 104.976C316.556 104.364 316.382 103.884 316.034 103.536C315.686 103.176 315.206 102.996 314.594 102.996H312.56V106.956H314.594ZM321.037 102.672H326.293V98.622H327.499V108H326.293V103.698H321.037V108H319.831V98.622H321.037V102.672ZM330.417 98.622H331.623V101.952H333.657C334.089 101.952 334.497 102.018 334.881 102.15C335.265 102.282 335.601 102.474 335.889 102.726C336.177 102.978 336.405 103.296 336.573 103.68C336.741 104.052 336.825 104.484 336.825 104.976C336.825 105.468 336.741 105.906 336.573 106.29C336.405 106.662 336.177 106.974 335.889 107.226C335.601 107.478 335.265 107.67 334.881 107.802C334.497 107.934 334.089 108 333.657 108H330.417V98.622ZM337.995 98.622H339.183V108H337.995V98.622ZM333.657 106.956C334.281 106.956 334.761 106.782 335.097 106.434C335.445 106.074 335.619 105.588 335.619 104.976C335.619 104.364 335.445 103.884 335.097 103.536C334.749 103.176 334.269 102.996 333.657 102.996H331.623V106.956H333.657ZM342.309 98.622L345.117 102.294L345.261 102.564L345.405 102.294L348.213 98.622H349.527L345.945 103.338L349.527 108H348.213L345.405 104.346L345.261 104.094L345.117 104.346L342.309 108H340.995L344.577 103.338L340.995 98.622H342.309ZM363.492 108H362.304V99.684H357.318V108H356.112V98.622H363.492V108ZM371.222 108.18C370.43 108.18 369.728 107.982 369.116 107.586C368.516 107.178 368.03 106.668 367.658 106.056V111.834H366.434V98.622H367.532V100.44C367.916 99.852 368.414 99.378 369.026 99.018C369.638 98.646 370.304 98.46 371.024 98.46C371.672 98.46 372.266 98.598 372.806 98.874C373.346 99.138 373.814 99.498 374.21 99.954C374.606 100.398 374.912 100.914 375.128 101.502C375.356 102.09 375.47 102.696 375.47 103.32C375.47 103.98 375.368 104.604 375.164 105.192C374.96 105.78 374.666 106.296 374.282 106.74C373.91 107.184 373.46 107.538 372.932 107.802C372.416 108.054 371.846 108.18 371.222 108.18ZM370.88 107.1C371.384 107.1 371.84 106.992 372.248 106.776C372.668 106.56 373.022 106.278 373.31 105.93C373.61 105.57 373.838 105.168 373.994 104.724C374.15 104.268 374.228 103.8 374.228 103.32C374.228 102.816 374.138 102.336 373.958 101.88C373.778 101.424 373.532 101.022 373.22 100.674C372.908 100.326 372.536 100.05 372.104 99.846C371.684 99.642 371.228 99.54 370.736 99.54C370.424 99.54 370.094 99.606 369.746 99.738C369.41 99.858 369.092 100.026 368.792 100.242C368.504 100.446 368.252 100.692 368.036 100.98C367.832 101.256 367.706 101.55 367.658 101.862V104.742C367.802 105.078 367.982 105.39 368.198 105.678C368.426 105.966 368.678 106.218 368.954 106.434C369.242 106.638 369.548 106.8 369.872 106.92C370.196 107.04 370.532 107.1 370.88 107.1ZM381.737 108.18C381.053 108.18 380.429 108.054 379.865 107.802C379.301 107.538 378.809 107.184 378.389 106.74C377.981 106.296 377.663 105.78 377.435 105.192C377.207 104.604 377.093 103.986 377.093 103.338C377.093 102.678 377.207 102.054 377.435 101.466C377.675 100.878 377.999 100.362 378.407 99.918C378.827 99.474 379.319 99.12 379.883 98.856C380.447 98.592 381.065 98.46 381.737 98.46C382.409 98.46 383.027 98.592 383.591 98.856C384.167 99.12 384.659 99.474 385.067 99.918C385.487 100.362 385.811 100.878 386.039 101.466C386.279 102.054 386.399 102.678 386.399 103.338C386.399 103.986 386.285 104.604 386.057 105.192C385.829 105.78 385.505 106.296 385.085 106.74C384.677 107.184 384.185 107.538 383.609 107.802C383.045 108.054 382.421 108.18 381.737 108.18ZM378.335 103.356C378.335 103.884 378.425 104.376 378.605 104.832C378.785 105.276 379.025 105.672 379.325 106.02C379.637 106.356 379.997 106.62 380.405 106.812C380.825 107.004 381.269 107.1 381.737 107.1C382.205 107.1 382.643 107.004 383.051 106.812C383.471 106.608 383.837 106.338 384.149 106.002C384.461 105.654 384.707 105.252 384.887 104.796C385.067 104.34 385.157 103.848 385.157 103.32C385.157 102.804 385.067 102.318 384.887 101.862C384.707 101.394 384.461 100.992 384.149 100.656C383.837 100.308 383.471 100.038 383.051 99.846C382.643 99.642 382.205 99.54 381.737 99.54C381.269 99.54 380.831 99.642 380.423 99.846C380.015 100.038 379.655 100.308 379.343 100.656C379.031 101.004 378.785 101.412 378.605 101.88C378.425 102.336 378.335 102.828 378.335 103.356ZM394.368 99.558H389.85V108H388.644V98.622H394.368V99.558ZM401.083 108.18C400.291 108.18 399.589 107.982 398.977 107.586C398.377 107.178 397.891 106.668 397.519 106.056V111.834H396.295V98.622H397.393V100.44C397.777 99.852 398.275 99.378 398.887 99.018C399.499 98.646 400.165 98.46 400.885 98.46C401.533 98.46 402.127 98.598 402.667 98.874C403.207 99.138 403.675 99.498 404.071 99.954C404.467 100.398 404.773 100.914 404.989 101.502C405.217 102.09 405.331 102.696 405.331 103.32C405.331 103.98 405.229 104.604 405.025 105.192C404.821 105.78 404.527 106.296 404.143 106.74C403.771 107.184 403.321 107.538 402.793 107.802C402.277 108.054 401.707 108.18 401.083 108.18ZM400.741 107.1C401.245 107.1 401.701 106.992 402.109 106.776C402.529 106.56 402.883 106.278 403.171 105.93C403.471 105.57 403.699 105.168 403.855 104.724C404.011 104.268 404.089 103.8 404.089 103.32C404.089 102.816 403.999 102.336 403.819 101.88C403.639 101.424 403.393 101.022 403.081 100.674C402.769 100.326 402.397 100.05 401.965 99.846C401.545 99.642 401.089 99.54 400.597 99.54C400.285 99.54 399.955 99.606 399.607 99.738C399.271 99.858 398.953 100.026 398.653 100.242C398.365 100.446 398.113 100.692 397.897 100.98C397.693 101.256 397.567 101.55 397.519 101.862V104.742C397.663 105.078 397.843 105.39 398.059 105.678C398.287 105.966 398.539 106.218 398.815 106.434C399.103 106.638 399.409 106.8 399.733 106.92C400.057 107.04 400.393 107.1 400.741 107.1ZM409.959 108.18C409.515 108.18 409.101 108.108 408.717 107.964C408.345 107.808 408.015 107.598 407.727 107.334C407.451 107.07 407.235 106.764 407.079 106.416C406.923 106.056 406.845 105.672 406.845 105.264C406.845 104.856 406.941 104.478 407.133 104.13C407.325 103.782 407.595 103.482 407.943 103.23C408.291 102.978 408.705 102.786 409.185 102.654C409.665 102.51 410.193 102.438 410.769 102.438C411.249 102.438 411.735 102.48 412.227 102.564C412.719 102.648 413.157 102.768 413.541 102.924V102.078C413.541 101.25 413.307 100.596 412.839 100.116C412.371 99.624 411.723 99.378 410.895 99.378C410.415 99.378 409.923 99.474 409.419 99.666C408.915 99.858 408.405 100.134 407.889 100.494L407.457 99.684C408.669 98.868 409.845 98.46 410.985 98.46C412.161 98.46 413.085 98.79 413.757 99.45C414.429 100.11 414.765 101.022 414.765 102.186V106.416C414.765 106.752 414.915 106.92 415.215 106.92V108C415.011 108.036 414.855 108.054 414.747 108.054C414.435 108.054 414.189 107.976 414.009 107.82C413.841 107.664 413.751 107.448 413.739 107.172L413.703 106.434C413.271 106.998 412.725 107.43 412.065 107.73C411.417 108.03 410.715 108.18 409.959 108.18ZM410.247 107.244C410.883 107.244 411.465 107.124 411.993 106.884C412.533 106.644 412.941 106.326 413.217 105.93C413.325 105.822 413.403 105.708 413.451 105.588C413.511 105.456 413.541 105.336 413.541 105.228V103.698C413.133 103.542 412.707 103.422 412.263 103.338C411.831 103.254 411.387 103.212 410.931 103.212C410.067 103.212 409.365 103.392 408.825 103.752C408.285 104.112 408.015 104.586 408.015 105.174C408.015 105.462 408.069 105.732 408.177 105.984C408.297 106.236 408.453 106.458 408.645 106.65C408.849 106.83 409.089 106.974 409.365 107.082C409.641 107.19 409.935 107.244 410.247 107.244ZM422.359 104.94L425.869 98.622H427.057V108H425.869V100.8L422.719 106.434H421.999L418.831 100.8V108H417.625V98.622H418.849L422.359 104.94ZM434.703 104.94L438.213 98.622H439.401V108H438.213V100.8L435.063 106.434H434.343L431.175 100.8V108H429.969V98.622H431.193L434.703 104.94ZM273.191 137.18C272.399 137.18 271.697 136.982 271.085 136.586C270.485 136.178 269.999 135.668 269.627 135.056V140.834H268.403V127.622H269.501V129.44C269.885 128.852 270.383 128.378 270.995 128.018C271.607 127.646 272.273 127.46 272.993 127.46C273.641 127.46 274.235 127.598 274.775 127.874C275.315 128.138 275.783 128.498 276.179 128.954C276.575 129.398 276.881 129.914 277.097 130.502C277.325 131.09 277.439 131.696 277.439 132.32C277.439 132.98 277.337 133.604 277.133 134.192C276.929 134.78 276.635 135.296 276.251 135.74C275.879 136.184 275.429 136.538 274.901 136.802C274.385 137.054 273.815 137.18 273.191 137.18ZM272.849 136.1C273.353 136.1 273.809 135.992 274.217 135.776C274.637 135.56 274.991 135.278 275.279 134.93C275.579 134.57 275.807 134.168 275.963 133.724C276.119 133.268 276.197 132.8 276.197 132.32C276.197 131.816 276.107 131.336 275.927 130.88C275.747 130.424 275.501 130.022 275.189 129.674C274.877 129.326 274.505 129.05 274.073 128.846C273.653 128.642 273.197 128.54 272.705 128.54C272.393 128.54 272.063 128.606 271.715 128.738C271.379 128.858 271.061 129.026 270.761 129.242C270.473 129.446 270.221 129.692 270.005 129.98C269.801 130.256 269.675 130.55 269.627 130.862V133.742C269.771 134.078 269.951 134.39 270.167 134.678C270.395 134.966 270.647 135.218 270.923 135.434C271.211 135.638 271.517 135.8 271.841 135.92C272.165 136.04 272.501 136.1 272.849 136.1ZM282.067 137.18C281.623 137.18 281.209 137.108 280.825 136.964C280.453 136.808 280.123 136.598 279.835 136.334C279.559 136.07 279.343 135.764 279.187 135.416C279.031 135.056 278.953 134.672 278.953 134.264C278.953 133.856 279.049 133.478 279.241 133.13C279.433 132.782 279.703 132.482 280.051 132.23C280.399 131.978 280.813 131.786 281.293 131.654C281.773 131.51 282.301 131.438 282.877 131.438C283.357 131.438 283.843 131.48 284.335 131.564C284.827 131.648 285.265 131.768 285.649 131.924V131.078C285.649 130.25 285.415 129.596 284.947 129.116C284.479 128.624 283.831 128.378 283.003 128.378C282.523 128.378 282.031 128.474 281.527 128.666C281.023 128.858 280.513 129.134 279.997 129.494L279.565 128.684C280.777 127.868 281.953 127.46 283.093 127.46C284.269 127.46 285.193 127.79 285.865 128.45C286.537 129.11 286.873 130.022 286.873 131.186V135.416C286.873 135.752 287.023 135.92 287.323 135.92V137C287.119 137.036 286.963 137.054 286.855 137.054C286.543 137.054 286.297 136.976 286.117 136.82C285.949 136.664 285.859 136.448 285.847 136.172L285.811 135.434C285.379 135.998 284.833 136.43 284.173 136.73C283.525 137.03 282.823 137.18 282.067 137.18ZM282.355 136.244C282.991 136.244 283.573 136.124 284.101 135.884C284.641 135.644 285.049 135.326 285.325 134.93C285.433 134.822 285.511 134.708 285.559 134.588C285.619 134.456 285.649 134.336 285.649 134.228V132.698C285.241 132.542 284.815 132.422 284.371 132.338C283.939 132.254 283.495 132.212 283.039 132.212C282.175 132.212 281.473 132.392 280.933 132.752C280.393 133.112 280.123 133.586 280.123 134.174C280.123 134.462 280.177 134.732 280.285 134.984C280.405 135.236 280.561 135.458 280.753 135.65C280.957 135.83 281.197 135.974 281.473 136.082C281.749 136.19 282.043 136.244 282.355 136.244ZM289.193 128.612C289.529 128.228 289.919 127.94 290.363 127.748C290.819 127.556 291.311 127.46 291.839 127.46C292.667 127.46 293.321 127.664 293.801 128.072C294.281 128.48 294.521 129.026 294.521 129.71C294.521 130.262 294.371 130.724 294.071 131.096C293.783 131.468 293.387 131.696 292.883 131.78C293.555 131.876 294.083 132.152 294.467 132.608C294.851 133.052 295.043 133.61 295.043 134.282C295.043 134.714 294.965 135.11 294.809 135.47C294.653 135.818 294.431 136.118 294.143 136.37C293.855 136.622 293.507 136.82 293.099 136.964C292.691 137.108 292.241 137.18 291.749 137.18C291.101 137.18 290.549 137.066 290.093 136.838C289.637 136.598 289.235 136.256 288.887 135.812L289.571 134.966C289.847 135.35 290.159 135.638 290.507 135.83C290.867 136.01 291.299 136.1 291.803 136.1C292.463 136.1 292.967 135.938 293.315 135.614C293.675 135.278 293.855 134.828 293.855 134.264C293.855 133.64 293.639 133.16 293.207 132.824C292.775 132.488 292.157 132.32 291.353 132.32H290.723V131.366H291.353C291.989 131.366 292.487 131.234 292.847 130.97C293.207 130.694 293.387 130.304 293.387 129.8C293.387 129.38 293.243 129.05 292.955 128.81C292.667 128.57 292.271 128.45 291.767 128.45C291.407 128.45 291.065 128.516 290.741 128.648C290.429 128.78 290.117 129.002 289.805 129.314L289.193 128.612ZM301.905 127.622C302.241 127.622 302.547 127.682 302.823 127.802C303.111 127.922 303.357 128.09 303.561 128.306C303.777 128.51 303.939 128.75 304.047 129.026C304.167 129.302 304.227 129.602 304.227 129.926C304.227 130.142 304.197 130.358 304.137 130.574C304.089 130.79 304.011 131 303.903 131.204C303.795 131.396 303.657 131.576 303.489 131.744C303.321 131.9 303.123 132.026 302.895 132.122C303.423 132.266 303.837 132.542 304.137 132.95C304.437 133.358 304.587 133.85 304.587 134.426C304.587 134.81 304.515 135.158 304.371 135.47C304.239 135.782 304.047 136.052 303.795 136.28C303.555 136.508 303.267 136.688 302.931 136.82C302.595 136.94 302.229 137 301.833 137H297.315V127.622H301.905ZM301.419 131.762C301.911 131.762 302.301 131.606 302.589 131.294C302.877 130.982 303.021 130.586 303.021 130.106C303.021 129.686 302.901 129.32 302.661 129.008C302.421 128.696 302.049 128.54 301.545 128.54H298.503V131.762H301.419ZM301.707 136.082C301.959 136.082 302.187 136.034 302.391 135.938C302.607 135.842 302.787 135.716 302.931 135.56C303.075 135.392 303.189 135.206 303.273 135.002C303.357 134.798 303.399 134.582 303.399 134.354C303.399 133.922 303.249 133.538 302.949 133.202C302.661 132.866 302.259 132.698 301.743 132.698H298.503V136.082H301.707ZM308.087 135.272L313.685 127.622H314.675V137H313.469V129.494L307.979 137H306.881V127.622H308.087V135.272ZM321.099 137H319.911V128.684H316.617V127.622H324.393V128.684H321.099V137ZM327.519 135.272L333.117 127.622H334.107V137H332.901V129.494L327.411 137H326.313V127.622H327.519V135.272ZM338.75 133.274C338.174 133.106 337.7 132.8 337.328 132.356C336.956 131.9 336.77 131.294 336.77 130.538C336.77 130.118 336.848 129.728 337.004 129.368C337.16 129.008 337.37 128.702 337.634 128.45C337.91 128.186 338.234 127.982 338.606 127.838C338.99 127.694 339.41 127.622 339.866 127.622H343.214V137H342.008V133.436H339.974L337.598 137H336.212L338.75 133.274ZM342.008 132.374V128.684H339.92C339.668 128.684 339.422 128.726 339.182 128.81C338.954 128.894 338.75 129.02 338.57 129.188C338.39 129.344 338.246 129.536 338.138 129.764C338.03 129.992 337.976 130.25 337.976 130.538C337.976 131.09 338.138 131.534 338.462 131.87C338.798 132.206 339.236 132.374 339.776 132.374H342.008ZM356.444 127.622H357.812L354.266 132.158L358.118 137H356.75L353.438 132.716H352.106V137H350.9V127.622H352.106V131.762H353.33L356.444 127.622ZM363.425 137.18C362.741 137.18 362.117 137.054 361.553 136.802C360.989 136.538 360.497 136.184 360.077 135.74C359.669 135.296 359.351 134.78 359.123 134.192C358.895 133.604 358.781 132.986 358.781 132.338C358.781 131.678 358.895 131.054 359.123 130.466C359.363 129.878 359.687 129.362 360.095 128.918C360.515 128.474 361.007 128.12 361.571 127.856C362.135 127.592 362.753 127.46 363.425 127.46C364.097 127.46 364.715 127.592 365.279 127.856C365.855 128.12 366.347 128.474 366.755 128.918C367.175 129.362 367.499 129.878 367.727 130.466C367.967 131.054 368.087 131.678 368.087 132.338C368.087 132.986 367.973 133.604 367.745 134.192C367.517 134.78 367.193 135.296 366.773 135.74C366.365 136.184 365.873 136.538 365.297 136.802C364.733 137.054 364.109 137.18 363.425 137.18ZM360.023 132.356C360.023 132.884 360.113 133.376 360.293 133.832C360.473 134.276 360.713 134.672 361.013 135.02C361.325 135.356 361.685 135.62 362.093 135.812C362.513 136.004 362.957 136.1 363.425 136.1C363.893 136.1 364.331 136.004 364.739 135.812C365.159 135.608 365.525 135.338 365.837 135.002C366.149 134.654 366.395 134.252 366.575 133.796C366.755 133.34 366.845 132.848 366.845 132.32C366.845 131.804 366.755 131.318 366.575 130.862C366.395 130.394 366.149 129.992 365.837 129.656C365.525 129.308 365.159 129.038 364.739 128.846C364.331 128.642 363.893 128.54 363.425 128.54C362.957 128.54 362.519 128.642 362.111 128.846C361.703 129.038 361.343 129.308 361.031 129.656C360.719 130.004 360.473 130.412 360.293 130.88C360.113 131.336 360.023 131.828 360.023 132.356ZM375.066 133.94L378.576 127.622H379.764V137H378.576V129.8L375.426 135.434H374.706L371.538 129.8V137H370.332V127.622H371.556L375.066 133.94ZM385.016 137.18C384.572 137.18 384.158 137.108 383.774 136.964C383.402 136.808 383.072 136.598 382.784 136.334C382.508 136.07 382.292 135.764 382.136 135.416C381.98 135.056 381.902 134.672 381.902 134.264C381.902 133.856 381.998 133.478 382.19 133.13C382.382 132.782 382.652 132.482 383 132.23C383.348 131.978 383.762 131.786 384.242 131.654C384.722 131.51 385.25 131.438 385.826 131.438C386.306 131.438 386.792 131.48 387.284 131.564C387.776 131.648 388.214 131.768 388.598 131.924V131.078C388.598 130.25 388.364 129.596 387.896 129.116C387.428 128.624 386.78 128.378 385.952 128.378C385.472 128.378 384.98 128.474 384.476 128.666C383.972 128.858 383.462 129.134 382.946 129.494L382.514 128.684C383.726 127.868 384.902 127.46 386.042 127.46C387.218 127.46 388.142 127.79 388.814 128.45C389.486 129.11 389.822 130.022 389.822 131.186V135.416C389.822 135.752 389.972 135.92 390.272 135.92V137C390.068 137.036 389.912 137.054 389.804 137.054C389.492 137.054 389.246 136.976 389.066 136.82C388.898 136.664 388.808 136.448 388.796 136.172L388.76 135.434C388.328 135.998 387.782 136.43 387.122 136.73C386.474 137.03 385.772 137.18 385.016 137.18ZM385.304 136.244C385.94 136.244 386.522 136.124 387.05 135.884C387.59 135.644 387.998 135.326 388.274 134.93C388.382 134.822 388.46 134.708 388.508 134.588C388.568 134.456 388.598 134.336 388.598 134.228V132.698C388.19 132.542 387.764 132.422 387.32 132.338C386.888 132.254 386.444 132.212 385.988 132.212C385.124 132.212 384.422 132.392 383.882 132.752C383.342 133.112 383.072 133.586 383.072 134.174C383.072 134.462 383.126 134.732 383.234 134.984C383.354 135.236 383.51 135.458 383.702 135.65C383.906 135.83 384.146 135.974 384.422 136.082C384.698 136.19 384.992 136.244 385.304 136.244ZM393.888 131.672H399.144V127.622H400.35V137H399.144V132.698H393.888V137H392.682V127.622H393.888V131.672ZM402.224 135.938H402.764C403.028 135.878 403.256 135.746 403.448 135.542C403.652 135.326 403.832 135.002 403.988 134.57C404.144 134.126 404.282 133.55 404.402 132.842C404.522 132.122 404.648 131.228 404.78 130.16L405.068 127.622H410.558V135.938H411.71V139.898H410.63V137H403.25V139.898H402.224V135.938ZM409.37 135.938V128.594H406.202L405.932 130.682C405.728 132.17 405.506 133.334 405.266 134.174C405.038 135.014 404.762 135.602 404.438 135.938H409.37ZM413.837 127.622H415.043V130.952H417.077C417.509 130.952 417.917 131.018 418.301 131.15C418.685 131.282 419.021 131.474 419.309 131.726C419.597 131.978 419.825 132.296 419.993 132.68C420.161 133.052 420.245 133.484 420.245 133.976C420.245 134.468 420.161 134.906 419.993 135.29C419.825 135.662 419.597 135.974 419.309 136.226C419.021 136.478 418.685 136.67 418.301 136.802C417.917 136.934 417.509 137 417.077 137H413.837V127.622ZM421.415 127.622H422.603V137H421.415V127.622ZM417.077 135.956C417.701 135.956 418.181 135.782 418.517 135.434C418.865 135.074 419.039 134.588 419.039 133.976C419.039 133.364 418.865 132.884 418.517 132.536C418.169 132.176 417.689 131.996 417.077 131.996H415.043V135.956H417.077Z" fill="#666666"/>
<path d="M335.112 79.4855C333.389 79.4855 331.825 79.0888 330.42 78.2955C329.037 77.5022 327.983 76.4368 327.258 75.0995L329.502 72.9575C330.137 73.9322 330.953 74.7142 331.95 75.3035C332.947 75.8702 334.013 76.1535 335.146 76.1535C336.529 76.1535 337.673 75.7228 338.58 74.8615C339.509 73.9775 339.974 72.8442 339.974 71.4615C339.974 70.1015 339.532 69.0022 338.648 68.1635C337.787 67.3022 336.71 66.8715 335.418 66.8715C334.557 66.8715 333.741 67.0642 332.97 67.4495C332.222 67.8348 331.621 68.3788 331.168 69.0815H327.836L330.59 55.0055H342.388V58.4395H333.31L332.086 65.0015C332.471 64.5935 332.993 64.2648 333.65 64.0155C334.307 63.7662 335.055 63.6415 335.894 63.6415C337.39 63.6415 338.739 63.9702 339.94 64.6275C341.141 65.2848 342.082 66.1915 342.762 67.3475C343.465 68.5035 343.816 69.8408 343.816 71.3595C343.816 72.9688 343.431 74.3855 342.66 75.6095C341.912 76.8335 340.881 77.7855 339.566 78.4655C338.251 79.1455 336.767 79.4855 335.112 79.4855ZM357.738 65.5795V68.5715H353.964V72.6855H350.598V68.5715H346.824V65.5795H350.598V61.4655H353.964V65.5795H357.738Z" fill="#36255A"/>
<g clip-path="url(#clip1)">
<path opacity="0.4" d="M29.3152 86.6554C45.0147 86.6554 57.7417 73.9284 57.7417 58.2289C57.7417 42.5293 45.0147 29.8024 29.3152 29.8024C13.6156 29.8024 0.888672 42.5293 0.888672 58.2289C0.888672 73.9284 13.6156 86.6554 29.3152 86.6554Z" fill="url(#paint3_linear)"/>
<path d="M168.978 35.5452L192.638 48.1217V85.3346L169.208 51.7971L168.978 35.5452Z" fill="#7ADDFF"/>
<path d="M168.976 35.5452V160.277H58.4863V95.9012L114.65 35.5452H168.976Z" fill="#49D1FF"/>
<path d="M169.869 9.34033L69.104 19.7136L82.741 152.182L183.506 141.808L169.869 9.34033Z" fill="white" stroke="#36255A" stroke-miterlimit="10" stroke-linecap="round"/>
<path d="M178.485 1.35376L77.7207 11.7271L91.3577 144.195L192.122 133.822L178.485 1.35376Z" fill="white" stroke="#36255A" stroke-miterlimit="10" stroke-linecap="round"/>
<path d="M58.4863 95.9011L82.1464 108.478V172.911L58.4863 160.277V95.9011Z" fill="#7ADDFF"/>
<path opacity="0.4" d="M172.965 62.9489L99.975 71.2184C98.8264 71.3333 97.7928 70.5293 97.6779 69.3807C97.563 68.2322 98.367 67.1985 99.5156 67.0837L172.506 58.8141C173.654 58.6993 174.688 59.5033 174.803 60.6518C174.918 61.8004 174.114 62.834 172.965 62.9489Z" fill="url(#paint4_linear)"/>
<path opacity="0.4" d="M170.324 39.6908L97.3344 47.9604C96.1858 48.0752 95.1521 47.2712 95.0373 46.1227C94.9224 44.9741 95.7264 43.9405 96.8749 43.8256L169.865 35.5561C171.014 35.4412 172.047 36.2452 172.162 37.3938C172.277 38.5423 171.473 39.576 170.324 39.6908Z" fill="url(#paint5_linear)"/>
<path opacity="0.4" d="M171.645 51.3486L98.6552 59.6181C97.5066 59.733 96.4729 58.929 96.3581 57.7805C96.2432 56.6319 97.0472 55.5982 98.1958 55.4834L171.128 47.1564C172.277 47.0416 173.311 47.8455 173.425 48.9941C173.598 50.1426 172.794 51.1763 171.645 51.3486Z" fill="url(#paint6_linear)"/>
<path d="M192.637 48.1216V172.911H82.1465V108.478L138.31 48.1216H192.637Z" fill="#49D1FF"/>
<path d="M171.549 155.531C167.989 154.038 164.371 152.602 160.811 151.109C176.833 111.369 192.798 71.6297 208.82 31.89C210.6 27.7553 215.366 25.8602 219.501 27.6404L220.65 28.1573C224.785 29.9375 226.68 34.704 224.899 38.8387C207.097 77.717 189.352 116.653 171.549 155.531Z" fill="#36255A"/>
<path d="M164.717 155.933L151.681 186.427L145.881 171.898L158.343 154.44L164.717 155.933Z" fill="#9B92AD"/>
<path d="M164.717 155.933L151.681 186.427L166.21 180.627L170.23 159.551L164.717 155.933Z" fill="#C4BAD8"/>
<path d="M160.582 168.51C162.232 168.51 163.569 167.173 163.569 165.523C163.569 163.874 162.232 162.537 160.582 162.537C158.933 162.537 157.596 163.874 157.596 165.523C157.596 167.173 158.933 168.51 160.582 168.51Z" fill="white"/>
<path d="M169.942 160.872L157.825 155.703C155.355 154.67 154.207 151.798 155.298 149.329C156.332 146.859 159.203 145.711 161.672 146.802L173.789 151.97C176.259 153.004 177.407 155.875 176.316 158.345C175.283 160.814 172.411 161.905 169.942 160.872Z" fill="#744CC6"/>
<path d="M105.135 29.1431L104.162 19.7656L108.098 19.3574C108.521 19.3136 108.917 19.3615 109.288 19.5011C109.667 19.6397 109.999 19.8411 110.285 20.1052C110.569 20.3605 110.801 20.6657 110.981 21.0209C111.168 21.3664 111.281 21.7285 111.32 22.1071C111.361 22.5033 111.33 22.8936 111.228 23.2781C111.133 23.6528 110.978 23.9982 110.761 24.3143C110.544 24.6217 110.268 24.8817 109.934 25.0943C109.608 25.2972 109.234 25.4206 108.811 25.4644L106.276 25.7274L106.614 28.9897L105.135 29.1431ZM106.14 24.4198L108.583 24.1664C108.795 24.1445 108.979 24.0808 109.138 23.9754C109.305 23.8691 109.441 23.7303 109.548 23.5591C109.655 23.3878 109.733 23.1928 109.781 22.9742C109.83 22.7556 109.841 22.5186 109.814 22.2632C109.787 21.9991 109.723 21.7654 109.622 21.5623C109.52 21.3592 109.392 21.1901 109.235 21.0551C109.078 20.9112 108.903 20.8092 108.71 20.7491C108.524 20.6794 108.335 20.6545 108.141 20.6746L105.777 20.9198L106.14 24.4198ZM116.476 22.2532C115.914 22.3293 115.426 22.5134 115.011 22.8056C114.604 23.0881 114.332 23.4635 114.193 23.9317L114.632 28.1582L113.179 28.3089L112.462 21.4012L113.81 21.2615L113.97 22.8068C114.158 22.3067 114.427 21.8961 114.777 21.5751C115.134 21.2443 115.531 21.0429 115.969 20.9708C116.057 20.9617 116.127 20.9544 116.18 20.9489C116.242 20.9425 116.295 20.9415 116.34 20.9457L116.476 22.2532ZM120.888 27.6429C120.342 27.6995 119.839 27.6538 119.379 27.5057C118.927 27.3567 118.53 27.1353 118.188 26.8415C117.846 26.5477 117.569 26.1937 117.357 25.7796C117.144 25.3567 117.013 24.9075 116.964 24.432C116.915 23.9565 116.951 23.4944 117.074 23.0456C117.195 22.588 117.393 22.1803 117.668 21.8226C117.951 21.4639 118.298 21.1653 118.71 20.9269C119.13 20.6875 119.608 20.54 120.146 20.4843C120.683 20.4286 121.177 20.4752 121.629 20.6242C122.089 20.7722 122.49 20.9932 122.832 21.287C123.183 21.5799 123.465 21.9378 123.678 22.3607C123.89 22.7748 124.02 23.2196 124.07 23.6951C124.119 24.1706 124.083 24.6371 123.961 25.0947C123.839 25.5435 123.636 25.9473 123.353 26.3059C123.078 26.6637 122.731 26.9623 122.311 27.2016C121.899 27.4401 121.425 27.5872 120.888 27.6429ZM118.458 24.2905C118.492 24.6251 118.577 24.9278 118.712 25.1986C118.847 25.4694 119.018 25.7009 119.225 25.893C119.431 26.0763 119.663 26.2169 119.923 26.3146C120.19 26.4026 120.469 26.4315 120.759 26.4013C121.05 26.3712 121.312 26.2861 121.547 26.1461C121.79 25.9963 121.992 25.8062 122.155 25.5757C122.318 25.3452 122.438 25.0836 122.515 24.7909C122.591 24.4982 122.612 24.1845 122.577 23.8499C122.543 23.5241 122.459 23.2258 122.324 22.955C122.188 22.6754 122.017 22.4395 121.81 22.2473C121.603 22.0552 121.366 21.9151 121.099 21.8271C120.84 21.7294 120.565 21.6957 120.274 21.7258C119.993 21.755 119.73 21.8445 119.488 21.9943C119.254 22.1431 119.056 22.3328 118.893 22.5633C118.73 22.7938 118.606 23.0602 118.522 23.3627C118.445 23.6554 118.424 23.9647 118.458 24.2905ZM128.457 26.7912C127.99 26.8396 127.553 26.7914 127.147 26.6467C126.739 26.4932 126.378 26.2681 126.062 25.9715C125.755 25.6741 125.501 25.3222 125.298 24.916C125.105 24.5089 124.984 24.072 124.936 23.6053C124.884 23.1122 124.916 22.6417 125.03 22.1938C125.142 21.7371 125.323 21.3357 125.572 20.9895C125.82 20.6345 126.128 20.3444 126.496 20.1193C126.873 19.8845 127.298 19.7425 127.774 19.6932C128.329 19.6356 128.827 19.7175 129.268 19.9387C129.718 20.159 130.101 20.4664 130.418 20.8607L130.282 19.5531L131.564 19.4203L132.259 26.1298C132.311 26.6317 132.265 27.086 132.12 27.4926C131.976 27.8992 131.75 28.2519 131.443 28.5507C131.145 28.8575 130.779 29.1046 130.345 29.292C129.91 29.4795 129.433 29.6002 128.914 29.654C128.148 29.7335 127.496 29.6676 126.957 29.4564C126.429 29.2531 125.969 28.9359 125.577 28.5049L126.317 27.6539C126.619 27.9963 126.987 28.2429 127.421 28.3937C127.864 28.5436 128.323 28.5939 128.799 28.5446C129.098 28.5135 129.376 28.4447 129.632 28.3381C129.896 28.2305 130.121 28.0826 130.306 27.8943C130.492 27.706 130.628 27.4782 130.716 27.211C130.813 26.9429 130.843 26.6327 130.807 26.2805L130.697 25.2239C130.494 25.6721 130.189 26.033 129.781 26.3067C129.374 26.5804 128.932 26.7419 128.457 26.7912ZM128.81 25.5664C129.03 25.5436 129.238 25.4864 129.433 25.395C129.627 25.2947 129.802 25.1743 129.956 25.0337C130.119 24.8833 130.253 24.7225 130.36 24.5513C130.466 24.3712 130.536 24.1859 130.57 23.9955L130.382 22.1861C130.271 21.9751 130.136 21.7888 129.977 21.6273C129.817 21.457 129.638 21.3154 129.439 21.2025C129.249 21.0887 129.049 21.0071 128.84 20.9577C128.629 20.8994 128.422 20.8808 128.22 20.9018C127.903 20.9347 127.624 21.0348 127.383 21.2022C127.15 21.3598 126.958 21.5622 126.805 21.8094C126.652 22.0478 126.541 22.3129 126.474 22.6047C126.406 22.8965 126.388 23.1921 126.419 23.4915C126.452 23.8085 126.536 24.1024 126.671 24.3732C126.813 24.6343 126.993 24.8605 127.208 25.0517C127.423 25.2341 127.664 25.3737 127.932 25.4705C128.209 25.5664 128.502 25.5984 128.81 25.5664ZM137.319 20.0916C136.757 20.1677 136.269 20.3518 135.854 20.644C135.448 20.9265 135.175 21.3018 135.037 21.7701L135.475 25.9966L134.022 26.1472L133.306 19.2396L134.653 19.0999L134.813 20.6452C135.002 20.145 135.271 19.7345 135.62 19.4134C135.977 19.0827 136.375 18.8813 136.812 18.8092C136.9 18.8001 136.971 18.7928 137.024 18.7873C137.085 18.7809 137.138 18.7798 137.183 18.784L137.319 20.0916ZM140.721 25.586C140.387 25.6207 140.069 25.6003 139.767 25.5247C139.474 25.4395 139.211 25.311 138.98 25.1392C138.757 24.9665 138.57 24.7544 138.42 24.503C138.278 24.2508 138.191 23.9705 138.159 23.6624C138.125 23.3366 138.165 23.0343 138.279 22.7555C138.392 22.4768 138.566 22.2273 138.802 22.0071C139.046 21.786 139.338 21.6043 139.68 21.4621C140.03 21.319 140.421 21.2251 140.852 21.1803C141.178 21.1466 141.502 21.144 141.826 21.1728C142.148 21.1928 142.442 21.2379 142.708 21.3083L142.658 20.8328C142.605 20.3221 142.419 19.941 142.099 19.6893C141.778 19.4289 141.345 19.327 140.799 19.3836C140.429 19.422 140.071 19.5303 139.725 19.7086C139.386 19.8772 139.041 20.1088 138.689 20.4034L138.144 19.5255C138.971 18.8345 139.865 18.4392 140.824 18.3397C141.775 18.2411 142.54 18.4065 143.119 18.836C143.697 19.2655 144.033 19.9337 144.127 20.8406L144.386 23.3369C144.418 23.6451 144.562 23.7904 144.819 23.7727L144.947 25.0142C144.809 25.0552 144.688 25.0856 144.583 25.1054C144.487 25.1242 144.391 25.1387 144.294 25.1487C144.012 25.178 143.785 25.1303 143.612 25.0059C143.447 24.8805 143.336 24.7096 143.278 24.4931L143.193 24.0614C142.927 24.4984 142.576 24.8507 142.141 25.1183C141.714 25.3762 141.241 25.5321 140.721 25.586ZM141.007 24.4751C141.359 24.4385 141.683 24.3426 141.978 24.1874C142.281 24.0225 142.509 23.8164 142.662 23.5692C142.83 23.3915 142.905 23.2146 142.887 23.0385L142.792 22.1272C142.536 22.0559 142.264 22.0085 141.977 21.9849C141.698 21.9603 141.427 21.9618 141.163 21.9892C140.643 22.043 140.228 22.2018 139.917 22.4654C139.614 22.7193 139.482 23.0312 139.52 23.401C139.556 23.7444 139.714 24.0218 139.994 24.233C140.273 24.4355 140.611 24.5161 141.007 24.4751ZM156.893 23.7753L155.44 23.926L155.039 20.0561C154.972 19.4133 154.818 18.9532 154.575 18.6758C154.333 18.3983 154.009 18.2806 153.604 18.3226C153.19 18.3655 152.828 18.5589 152.516 18.9027C152.213 19.2367 152.011 19.6537 151.912 20.1535L152.337 24.2479L150.884 24.3986L150.482 20.5287C150.415 19.8771 150.26 19.417 150.019 19.1483C149.776 18.8709 149.457 18.7527 149.061 18.7938C148.647 18.8367 148.284 19.0257 147.972 19.3607C147.659 19.6956 147.453 20.113 147.354 20.6128L147.78 24.7205L146.327 24.8711L145.611 17.9635L146.931 17.8265L147.075 19.2133C147.298 18.7007 147.616 18.2939 148.03 17.9929C148.452 17.6822 148.949 17.4972 149.521 17.4378C150.093 17.3784 150.558 17.4815 150.915 17.7471C151.28 18.0118 151.526 18.3646 151.652 18.8054C151.89 18.2646 152.215 17.8393 152.628 17.5294C153.04 17.2108 153.527 17.0223 154.091 16.9639C154.496 16.9219 154.839 16.9664 155.119 17.0975C155.408 17.2189 155.645 17.399 155.829 17.6379C156.014 17.8768 156.156 18.1648 156.253 18.5018C156.349 18.83 156.417 19.1834 156.456 19.5621L156.893 23.7753Z" fill="#B7EDFF"/>
<path d="M161.859 122.771L161.77 108.523C162.875 108.175 163.55 107.147 163.542 105.952C163.533 104.502 162.333 103.315 160.886 103.324C160.204 103.329 159.61 103.588 159.101 104.018L141.152 93.807C141.152 93.7217 141.151 93.5511 141.15 93.4657C141.141 92.0153 139.941 90.8284 138.494 90.8375C137.046 90.8466 135.861 92.0485 135.87 93.4989C135.871 93.5843 135.872 93.7549 135.872 93.8402L118.053 104.276C117.539 103.853 116.942 103.601 116.26 103.605C114.813 103.699 113.628 104.901 113.638 106.352C113.645 107.546 114.417 108.48 115.442 108.9L115.533 123.319C114.428 123.667 113.753 124.695 113.76 125.889C113.768 127.084 114.54 128.017 115.565 128.438L115.623 137.652C115.626 138.164 115.969 138.503 116.48 138.5C116.991 138.497 117.329 138.153 117.326 137.641L117.268 128.427C117.608 128.339 117.948 128.167 118.202 127.909L136.151 138.12C136.151 138.205 136.152 138.291 136.152 138.376C136.16 139.571 136.932 140.504 137.957 140.924L138.022 151.333C138.026 151.845 138.368 152.184 138.879 152.181C139.39 152.178 139.729 151.834 139.726 151.322L139.66 140.828C140.765 140.48 141.439 139.452 141.432 138.258C141.431 138.172 141.431 138.087 141.43 138.002L159.504 127.393C159.932 127.732 160.529 127.899 161.04 127.896C162.488 127.887 163.673 126.685 163.663 125.234C163.656 124.125 162.969 123.106 161.859 122.771ZM158.474 126.12L140.739 136.47C140.397 136.131 140.054 135.877 139.628 135.795L139.538 121.547C140.643 121.198 141.318 120.17 141.311 118.976C141.31 118.805 141.309 118.634 141.222 118.464L159.126 107.943C159.383 108.197 159.725 108.365 160.066 108.449L160.156 122.697C159.051 123.045 158.376 124.073 158.383 125.267C158.386 125.609 158.387 125.865 158.474 126.12ZM158.351 106.497L140.447 117.019C139.419 116.172 137.886 116.182 136.955 117.041L135.246 116.113L139.064 113.871C139.319 113.698 139.487 113.441 139.485 113.1L139.378 96.0365C139.803 95.8632 140.142 95.6904 140.396 95.3476L158.259 105.474C158.26 105.644 158.176 105.816 158.177 105.986C158.263 106.156 158.264 106.327 158.351 106.497ZM137.734 118.998C137.733 118.913 137.733 118.828 137.733 118.828C137.732 118.657 137.901 118.485 138.07 118.314C138.239 118.142 138.494 118.055 138.665 118.054C138.92 118.052 139.091 118.136 139.348 118.306C139.518 118.39 139.605 118.645 139.606 118.816C139.607 118.901 139.607 118.901 139.607 118.986C139.61 119.413 139.357 119.756 138.932 119.929C138.762 120.016 138.592 120.017 138.336 119.933C137.995 119.85 137.737 119.425 137.734 118.998ZM137.779 112.599L133.536 115.1L118.921 106.83C118.92 106.66 118.919 106.489 118.918 106.404C118.917 106.233 118.916 106.062 118.83 105.892L136.648 95.3711C136.906 95.7108 137.333 95.8787 137.675 96.0472L137.779 112.599ZM119.039 125.6L133.549 117.062L136.113 118.496C136.114 118.667 136.03 118.838 136.031 119.009C136.038 120.203 136.81 121.137 137.835 121.557L137.925 135.805C137.5 135.979 137.161 136.237 136.822 136.495L119.044 126.368C119.043 126.197 119.127 126.026 119.126 125.856C119.125 125.77 119.125 125.685 119.039 125.6ZM160.763 124.399C160.932 124.313 161.103 124.312 161.359 124.396C161.785 124.478 162.043 124.903 162.046 125.33C162.05 126.012 161.202 126.53 160.603 126.192C160.433 126.108 160.346 125.938 160.261 125.853L160.26 125.768C160.174 125.683 160.173 125.512 160.173 125.427C160.084 124.916 160.337 124.487 160.763 124.399ZM161.164 106.906C160.994 106.992 160.823 106.993 160.567 106.91C160.482 106.91 160.311 106.826 160.226 106.741C160.055 106.657 159.968 106.402 159.967 106.231C159.966 106.146 159.966 106.146 159.966 106.06C159.965 105.975 159.965 105.89 159.965 105.89C160.048 105.633 160.132 105.462 160.302 105.376C160.472 105.204 160.726 105.117 160.897 105.116C161.408 105.113 161.836 105.537 161.839 106.049C161.842 106.39 161.588 106.733 161.164 106.906ZM139.533 93.5612C139.534 93.7319 139.45 93.9884 139.28 94.0748C139.196 94.1606 139.112 94.3318 138.856 94.3334C138.686 94.4198 138.516 94.4208 138.26 94.3371C138.089 94.2529 137.918 94.1686 137.833 94.0839C137.661 93.9143 137.66 93.7437 137.573 93.4882C137.57 92.9763 137.993 92.5471 138.504 92.5439C139.015 92.5406 139.444 92.9645 139.447 93.4765L139.533 93.5612ZM117.236 123.308L117.145 108.889C117.485 108.802 117.824 108.544 118.078 108.286L131.754 116.135L118.347 123.983C118.09 123.729 117.663 123.476 117.236 123.308ZM117.3 106.329C117.3 106.414 117.3 106.414 117.301 106.499C117.302 106.67 117.218 106.841 117.048 107.013C116.964 107.099 116.794 107.185 116.624 107.271C116.454 107.358 116.284 107.359 116.028 107.275C115.601 107.107 115.344 106.767 115.341 106.341C115.338 105.829 115.761 105.4 116.272 105.396C116.527 105.395 116.698 105.479 116.955 105.648C117.125 105.732 117.212 105.902 117.213 106.158C117.299 106.243 117.299 106.243 117.3 106.329ZM115.464 125.879C115.461 125.452 115.714 125.109 116.139 124.936C116.224 124.935 116.309 124.849 116.394 124.849C116.479 124.848 116.564 124.848 116.735 124.932C116.906 125.016 117.077 125.101 117.163 125.271C117.249 125.441 117.336 125.611 117.337 125.867C117.338 125.952 117.338 126.037 117.338 126.037C117.254 126.209 117.171 126.465 117.001 126.552C116.916 126.637 116.832 126.723 116.661 126.724L116.576 126.725C116.577 126.81 116.322 126.897 116.151 126.813C115.724 126.645 115.466 126.305 115.464 125.879ZM137.855 138.28C137.854 138.109 137.938 137.853 138.022 137.682C138.106 137.511 138.276 137.424 138.53 137.337C138.616 137.337 138.7 137.251 138.785 137.25C138.871 137.25 138.956 137.249 139.127 137.334C139.297 137.418 139.468 137.502 139.555 137.672C139.641 137.842 139.727 138.012 139.729 138.268C139.731 138.695 139.478 139.038 139.053 139.211C138.883 139.297 138.713 139.298 138.457 139.215C138.116 139.132 137.858 138.707 137.855 138.28Z" fill="white"/>
</g>
</g>
<defs>
<linearGradient id="paint0_linear" x1="439.17" y1="41.73" x2="462.167" y2="52.3103" gradientUnits="userSpaceOnUse">
<stop stop-color="#49D1FF"/>
<stop offset="0.5624" stop-color="#49D1FF" stop-opacity="0"/>
</linearGradient>
<linearGradient id="paint1_linear" x1="495.378" y1="194.513" x2="446.025" y2="123.573" gradientUnits="userSpaceOnUse">
<stop stop-color="#49D1FF"/>
<stop offset="0.5624" stop-color="#49D1FF" stop-opacity="0"/>
</linearGradient>
<linearGradient id="paint2_linear" x1="278.265" y1="188.302" x2="114.845" y2="-23.4109" gradientUnits="userSpaceOnUse">
<stop stop-color="#49D1FF"/>
<stop offset="0.5624" stop-color="#49D1FF" stop-opacity="0"/>
</linearGradient>
<linearGradient id="paint3_linear" x1="3.47099" y1="46.3361" x2="55.1031" y2="70.0443" gradientUnits="userSpaceOnUse">
<stop stop-color="#49D1FF"/>
<stop offset="0.5624" stop-color="#49D1FF" stop-opacity="0"/>
</linearGradient>
<linearGradient id="paint4_linear" x1="97.6296" y1="69.3886" x2="174.786" y2="60.6448" gradientUnits="userSpaceOnUse">
<stop stop-color="#49D1FF"/>
<stop offset="0.9031" stop-color="#49D1FF" stop-opacity="0"/>
</linearGradient>
<linearGradient id="paint5_linear" x1="94.9926" y1="46.1109" x2="172.149" y2="37.3672" gradientUnits="userSpaceOnUse">
<stop stop-color="#49D1FF"/>
<stop offset="0.9031" stop-color="#49D1FF" stop-opacity="0"/>
</linearGradient>
<linearGradient id="paint6_linear" x1="96.3116" y1="57.7498" x2="173.468" y2="49.006" gradientUnits="userSpaceOnUse">
<stop stop-color="#49D1FF"/>
<stop offset="0.9031" stop-color="#49D1FF" stop-opacity="0"/>
</linearGradient>
<clipPath id="clip0">
<rect x="0.5" width="527" height="218" rx="46" fill="white"/>
</clipPath>
<clipPath id="clip1">
<rect width="254" height="189" fill="white" transform="translate(0.500977)"/>
</clipPath>
</defs>
</svg>
