<svg width="527" height="251" viewBox="0 0 527 251" fill="none" xmlns="http://www.w3.org/2000/svg">
<path d="M514 11C504 23 479.448 90.2327 419.904 85.0465C339 78 308.841 106.881 286.938 130.391C285.177 132.281 283.408 134.18 281.63 136.078C279.541 138.309 277.465 140.539 275.4 142.758C253.838 165.923 244.5 173.176 217.5 182.554C183.5 191.5 162.644 186.623 136.5 173.176C61 136.078 18.1972 167.472 5 173.176" stroke="url(#paint0_linear)" stroke-width="6" stroke-linecap="round"/>
<path d="M501.199 8.66025L516.592 6L521.984 20.6603" stroke="#744CC6" stroke-width="6" stroke-linecap="round" stroke-linejoin="round"/>
<path d="M6.54 213.18C5.34 213.18 4.32667 212.92 3.5 212.4C2.67333 211.867 2.13333 211.14 1.88 210.22L3.08 208.82C3.10667 209.06 3.2 209.32 3.36 209.6C3.53333 209.867 3.76 210.113 4.04 210.34C4.33333 210.567 4.68667 210.76 5.1 210.92C5.51333 211.067 5.98 211.14 6.5 211.14C6.91333 211.14 7.3 211.093 7.66 211C8.02 210.893 8.33333 210.747 8.6 210.56C8.86667 210.36 9.07333 210.127 9.22 209.86C9.38 209.593 9.46 209.287 9.46 208.94C9.46 208.18 9.08 207.607 8.32 207.22C7.57333 206.833 6.53333 206.64 5.2 206.64H4.52V204.78H5.2C6.36 204.78 7.3 204.607 8.02 204.26C8.74 203.913 9.1 203.373 9.1 202.64C9.1 202.307 9.02667 202.013 8.88 201.76C8.73333 201.493 8.54 201.273 8.3 201.1C8.06 200.913 7.78667 200.78 7.48 200.7C7.18667 200.607 6.88667 200.56 6.58 200.56C5.74 200.56 5.04 200.747 4.48 201.12C3.93333 201.48 3.54667 201.887 3.32 202.34L1.88 200.76C2.09333 200.427 2.36667 200.127 2.7 199.86C3.04667 199.593 3.42667 199.373 3.84 199.2C4.25333 199.013 4.69333 198.873 5.16 198.78C5.62667 198.673 6.09333 198.62 6.56 198.62C7.25333 198.62 7.9 198.72 8.5 198.92C9.1 199.12 9.61333 199.4 10.04 199.76C10.4667 200.107 10.8 200.52 11.04 201C11.2933 201.467 11.42 201.98 11.42 202.54C11.42 203.34 11.18 204 10.7 204.52C10.2333 205.04 9.56667 205.4 8.7 205.6C9.16667 205.68 9.58667 205.833 9.96 206.06C10.3333 206.287 10.6533 206.56 10.92 206.88C11.1867 207.2 11.3867 207.567 11.52 207.98C11.6667 208.38 11.74 208.8 11.74 209.24C11.74 209.88 11.5933 210.447 11.3 210.94C11.0067 211.433 10.62 211.847 10.14 212.18C9.66 212.513 9.10667 212.767 8.48 212.94C7.85333 213.1 7.20667 213.18 6.54 213.18Z" fill="#0D0815"/>
<path d="M18.1691 208.284C18.1691 207.624 18.2831 207 18.5111 206.412C18.7391 205.824 19.0571 205.314 19.4651 204.882C19.8851 204.438 20.3831 204.09 20.9591 203.838C21.5351 203.586 22.1711 203.46 22.8671 203.46C23.7551 203.46 24.5291 203.664 25.1891 204.072C25.8491 204.468 26.3471 205.008 26.6831 205.692L25.4951 206.07C25.2311 205.59 24.8591 205.218 24.3791 204.954C23.9111 204.678 23.3891 204.54 22.8131 204.54C22.3331 204.54 21.8831 204.636 21.4631 204.828C21.0551 205.02 20.6951 205.284 20.3831 205.62C20.0831 205.944 19.8431 206.334 19.6631 206.79C19.4951 207.246 19.4111 207.744 19.4111 208.284C19.4111 208.812 19.5011 209.31 19.6811 209.778C19.8611 210.246 20.1071 210.654 20.4191 211.002C20.7311 211.338 21.0911 211.608 21.4991 211.812C21.9191 212.004 22.3631 212.1 22.8311 212.1C23.1311 212.1 23.4251 212.058 23.7131 211.974C24.0131 211.89 24.2891 211.776 24.5411 211.632C24.7931 211.476 25.0091 211.302 25.1891 211.11C25.3691 210.918 25.4951 210.714 25.5671 210.498L26.7731 210.858C26.6411 211.194 26.4491 211.506 26.1971 211.794C25.9451 212.07 25.6451 212.316 25.2971 212.532C24.9611 212.736 24.5831 212.892 24.1631 213C23.7551 213.12 23.3291 213.18 22.8851 213.18C22.2011 213.18 21.5711 213.054 20.9951 212.802C20.4191 212.538 19.9211 212.184 19.5011 211.74C19.0811 211.284 18.7511 210.762 18.5111 210.174C18.2831 209.586 18.1691 208.956 18.1691 208.284ZM32.7665 213.18C32.0825 213.18 31.4585 213.054 30.8945 212.802C30.3305 212.538 29.8385 212.184 29.4185 211.74C29.0105 211.296 28.6925 210.78 28.4645 210.192C28.2365 209.604 28.1225 208.986 28.1225 208.338C28.1225 207.678 28.2365 207.054 28.4645 206.466C28.7045 205.878 29.0285 205.362 29.4365 204.918C29.8565 204.474 30.3485 204.12 30.9125 203.856C31.4765 203.592 32.0945 203.46 32.7665 203.46C33.4385 203.46 34.0565 203.592 34.6205 203.856C35.1965 204.12 35.6885 204.474 36.0965 204.918C36.5165 205.362 36.8405 205.878 37.0685 206.466C37.3085 207.054 37.4285 207.678 37.4285 208.338C37.4285 208.986 37.3145 209.604 37.0865 210.192C36.8585 210.78 36.5345 211.296 36.1145 211.74C35.7065 212.184 35.2145 212.538 34.6385 212.802C34.0745 213.054 33.4505 213.18 32.7665 213.18ZM29.3645 208.356C29.3645 208.884 29.4545 209.376 29.6345 209.832C29.8145 210.276 30.0545 210.672 30.3545 211.02C30.6665 211.356 31.0265 211.62 31.4345 211.812C31.8545 212.004 32.2985 212.1 32.7665 212.1C33.2345 212.1 33.6725 212.004 34.0805 211.812C34.5005 211.608 34.8665 211.338 35.1785 211.002C35.4905 210.654 35.7365 210.252 35.9165 209.796C36.0965 209.34 36.1865 208.848 36.1865 208.32C36.1865 207.804 36.0965 207.318 35.9165 206.862C35.7365 206.394 35.4905 205.992 35.1785 205.656C34.8665 205.308 34.5005 205.038 34.0805 204.846C33.6725 204.642 33.2345 204.54 32.7665 204.54C32.2985 204.54 31.8605 204.642 31.4525 204.846C31.0445 205.038 30.6845 205.308 30.3725 205.656C30.0605 206.004 29.8145 206.412 29.6345 206.88C29.4545 207.336 29.3645 207.828 29.3645 208.356ZM42.7086 213H41.5206V204.684H38.2266V203.622H46.0026V204.684H42.7086V213ZM52.71 213.18C51.918 213.18 51.216 212.982 50.604 212.586C50.004 212.178 49.518 211.668 49.146 211.056V216.834H47.922V203.622H49.02V205.44C49.404 204.852 49.902 204.378 50.514 204.018C51.126 203.646 51.792 203.46 52.512 203.46C53.16 203.46 53.754 203.598 54.294 203.874C54.834 204.138 55.302 204.498 55.698 204.954C56.094 205.398 56.4 205.914 56.616 206.502C56.844 207.09 56.958 207.696 56.958 208.32C56.958 208.98 56.856 209.604 56.652 210.192C56.448 210.78 56.154 211.296 55.77 211.74C55.398 212.184 54.948 212.538 54.42 212.802C53.904 213.054 53.334 213.18 52.71 213.18ZM52.368 212.1C52.872 212.1 53.328 211.992 53.736 211.776C54.156 211.56 54.51 211.278 54.798 210.93C55.098 210.57 55.326 210.168 55.482 209.724C55.638 209.268 55.716 208.8 55.716 208.32C55.716 207.816 55.626 207.336 55.446 206.88C55.266 206.424 55.02 206.022 54.708 205.674C54.396 205.326 54.024 205.05 53.592 204.846C53.172 204.642 52.716 204.54 52.224 204.54C51.912 204.54 51.582 204.606 51.234 204.738C50.898 204.858 50.58 205.026 50.28 205.242C49.992 205.446 49.74 205.692 49.524 205.98C49.32 206.256 49.194 206.55 49.146 206.862V209.742C49.29 210.078 49.47 210.39 49.686 210.678C49.914 210.966 50.166 211.218 50.442 211.434C50.73 211.638 51.036 211.8 51.36 211.92C51.684 212.04 52.02 212.1 52.368 212.1ZM58.9121 215.484C59.0921 215.652 59.2721 215.766 59.4521 215.826C59.6321 215.886 59.8241 215.916 60.0281 215.916C60.1841 215.916 60.3341 215.868 60.4781 215.772C60.6341 215.688 60.7841 215.532 60.9281 215.304C61.0841 215.088 61.2401 214.794 61.3961 214.422C61.5521 214.05 61.7261 213.576 61.9181 213L57.8321 203.622H59.0921L62.5661 211.866L65.7881 203.622H66.9581L62.5841 214.548C62.4041 215.016 62.2181 215.406 62.0261 215.718C61.8461 216.03 61.6541 216.282 61.4501 216.474C61.2581 216.666 61.0481 216.798 60.8201 216.87C60.6041 216.954 60.3641 216.996 60.1001 216.996C59.5601 216.996 59.1461 216.852 58.8581 216.564L58.9121 215.484ZM66.8552 211.938H67.3952C67.6592 211.878 67.8872 211.746 68.0792 211.542C68.2832 211.326 68.4632 211.002 68.6192 210.57C68.7752 210.126 68.9132 209.55 69.0332 208.842C69.1532 208.122 69.2792 207.228 69.4112 206.16L69.6992 203.622H75.1892V211.938H76.3412V215.898H75.2612V213H67.8812V215.898H66.8552V211.938ZM74.0012 211.938V204.594H70.8332L70.5632 206.682C70.3592 208.17 70.1372 209.334 69.8972 210.174C69.6692 211.014 69.3932 211.602 69.0692 211.938H74.0012ZM79.6738 207.672H84.9298V203.622H86.1358V213H84.9298V208.698H79.6738V213H78.4678V203.622H79.6738V207.672ZM90.2601 211.272L95.8581 203.622H96.8481V213H95.6421V205.494L90.1521 213H89.0541V203.622H90.2601V211.272ZM105.325 203.622H106.693L103.147 208.158L106.999 213H105.631L102.319 208.716H100.987V213H99.781V203.622H100.987V207.762H102.211L105.325 203.622ZM110.932 213.18C110.488 213.18 110.074 213.108 109.69 212.964C109.318 212.808 108.988 212.598 108.7 212.334C108.424 212.07 108.208 211.764 108.052 211.416C107.896 211.056 107.818 210.672 107.818 210.264C107.818 209.856 107.914 209.478 108.106 209.13C108.298 208.782 108.568 208.482 108.916 208.23C109.264 207.978 109.678 207.786 110.158 207.654C110.638 207.51 111.166 207.438 111.742 207.438C112.222 207.438 112.708 207.48 113.2 207.564C113.692 207.648 114.13 207.768 114.514 207.924V207.078C114.514 206.25 114.28 205.596 113.812 205.116C113.344 204.624 112.696 204.378 111.868 204.378C111.388 204.378 110.896 204.474 110.392 204.666C109.888 204.858 109.378 205.134 108.862 205.494L108.43 204.684C109.642 203.868 110.818 203.46 111.958 203.46C113.134 203.46 114.058 203.79 114.73 204.45C115.402 205.11 115.738 206.022 115.738 207.186V211.416C115.738 211.752 115.888 211.92 116.188 211.92V213C115.984 213.036 115.828 213.054 115.72 213.054C115.408 213.054 115.162 212.976 114.982 212.82C114.814 212.664 114.724 212.448 114.712 212.172L114.676 211.434C114.244 211.998 113.698 212.43 113.038 212.73C112.39 213.03 111.688 213.18 110.932 213.18ZM111.22 212.244C111.856 212.244 112.438 212.124 112.966 211.884C113.506 211.644 113.914 211.326 114.19 210.93C114.298 210.822 114.376 210.708 114.424 210.588C114.484 210.456 114.514 210.336 114.514 210.228V208.698C114.106 208.542 113.68 208.422 113.236 208.338C112.804 208.254 112.36 208.212 111.904 208.212C111.04 208.212 110.338 208.392 109.798 208.752C109.258 209.112 108.988 209.586 108.988 210.174C108.988 210.462 109.042 210.732 109.15 210.984C109.27 211.236 109.426 211.458 109.618 211.65C109.822 211.83 110.062 211.974 110.338 212.082C110.614 212.19 110.908 212.244 111.22 212.244ZM127.992 203.622C128.328 203.622 128.634 203.682 128.91 203.802C129.198 203.922 129.444 204.09 129.648 204.306C129.864 204.51 130.026 204.75 130.134 205.026C130.254 205.302 130.314 205.602 130.314 205.926C130.314 206.142 130.284 206.358 130.224 206.574C130.176 206.79 130.098 207 129.99 207.204C129.882 207.396 129.744 207.576 129.576 207.744C129.408 207.9 129.21 208.026 128.982 208.122C129.51 208.266 129.924 208.542 130.224 208.95C130.524 209.358 130.674 209.85 130.674 210.426C130.674 210.81 130.602 211.158 130.458 211.47C130.326 211.782 130.134 212.052 129.882 212.28C129.642 212.508 129.354 212.688 129.018 212.82C128.682 212.94 128.316 213 127.92 213H123.402V203.622H127.992ZM127.506 207.762C127.998 207.762 128.388 207.606 128.676 207.294C128.964 206.982 129.108 206.586 129.108 206.106C129.108 205.686 128.988 205.32 128.748 205.008C128.508 204.696 128.136 204.54 127.632 204.54H124.59V207.762H127.506ZM127.794 212.082C128.046 212.082 128.274 212.034 128.478 211.938C128.694 211.842 128.874 211.716 129.018 211.56C129.162 211.392 129.276 211.206 129.36 211.002C129.444 210.798 129.486 210.582 129.486 210.354C129.486 209.922 129.336 209.538 129.036 209.202C128.748 208.866 128.346 208.698 127.83 208.698H124.59V212.082H127.794ZM2.602 242V229.22H8.002C8.554 229.22 9.058 229.34 9.514 229.58C9.982 229.808 10.384 230.114 10.72 230.498C11.056 230.87 11.314 231.296 11.494 231.776C11.686 232.256 11.782 232.742 11.782 233.234C11.782 233.702 11.71 234.152 11.566 234.584C11.434 235.004 11.242 235.388 10.99 235.736C10.75 236.072 10.456 236.36 10.108 236.6C9.76 236.828 9.37 236.984 8.938 237.068L12.07 242H10.648L7.642 237.284H3.862V242H2.602ZM3.862 236.168H8.038C8.41 236.168 8.746 236.09 9.046 235.934C9.358 235.766 9.622 235.544 9.838 235.268C10.054 234.992 10.222 234.68 10.342 234.332C10.462 233.984 10.522 233.618 10.522 233.234C10.522 232.85 10.45 232.484 10.306 232.136C10.174 231.776 9.988 231.464 9.748 231.2C9.52 230.936 9.244 230.726 8.92 230.57C8.608 230.414 8.278 230.336 7.93 230.336H3.862V236.168ZM16.5247 242.18C16.0807 242.18 15.6667 242.108 15.2827 241.964C14.9107 241.808 14.5807 241.598 14.2927 241.334C14.0167 241.07 13.8007 240.764 13.6447 240.416C13.4887 240.056 13.4107 239.672 13.4107 239.264C13.4107 238.856 13.5067 238.478 13.6987 238.13C13.8907 237.782 14.1607 237.482 14.5087 237.23C14.8567 236.978 15.2707 236.786 15.7507 236.654C16.2307 236.51 16.7587 236.438 17.3347 236.438C17.8147 236.438 18.3007 236.48 18.7927 236.564C19.2847 236.648 19.7227 236.768 20.1067 236.924V236.078C20.1067 235.25 19.8727 234.596 19.4047 234.116C18.9367 233.624 18.2887 233.378 17.4607 233.378C16.9807 233.378 16.4887 233.474 15.9847 233.666C15.4807 233.858 14.9707 234.134 14.4547 234.494L14.0227 233.684C15.2347 232.868 16.4107 232.46 17.5507 232.46C18.7267 232.46 19.6507 232.79 20.3227 233.45C20.9947 234.11 21.3307 235.022 21.3307 236.186V240.416C21.3307 240.752 21.4807 240.92 21.7807 240.92V242C21.5767 242.036 21.4207 242.054 21.3127 242.054C21.0007 242.054 20.7547 241.976 20.5747 241.82C20.4067 241.664 20.3167 241.448 20.3047 241.172L20.2687 240.434C19.8367 240.998 19.2907 241.43 18.6307 241.73C17.9827 242.03 17.2807 242.18 16.5247 242.18ZM16.8127 241.244C17.4487 241.244 18.0307 241.124 18.5587 240.884C19.0987 240.644 19.5067 240.326 19.7827 239.93C19.8907 239.822 19.9687 239.708 20.0167 239.588C20.0767 239.456 20.1067 239.336 20.1067 239.228V237.698C19.6987 237.542 19.2727 237.422 18.8287 237.338C18.3967 237.254 17.9527 237.212 17.4967 237.212C16.6327 237.212 15.9307 237.392 15.3907 237.752C14.8507 238.112 14.5807 238.586 14.5807 239.174C14.5807 239.462 14.6347 239.732 14.7427 239.984C14.8627 240.236 15.0187 240.458 15.2107 240.65C15.4147 240.83 15.6547 240.974 15.9307 241.082C16.2067 241.19 16.5007 241.244 16.8127 241.244ZM24.1553 242V232.622H25.3793V242H24.1553ZM24.1553 230.66V228.86H25.3793V230.66H24.1553ZM36.1752 229.76C35.7912 229.76 35.4672 229.838 35.2032 229.994C34.9392 230.15 34.7232 230.348 34.5552 230.588C34.3872 230.828 34.2612 231.104 34.1772 231.416C34.1052 231.728 34.0692 232.034 34.0692 232.334V232.622H37.0572V233.594H34.0692V242H32.8452V233.594H29.9292V242H28.7052V233.594H27.4092V232.622H28.7052V232.514C28.7172 232.118 28.7832 231.734 28.9032 231.362C29.0232 230.978 29.1972 230.642 29.4252 230.354C29.6652 230.054 29.9592 229.82 30.3072 229.652C30.6672 229.472 31.0872 229.382 31.5672 229.382C31.9872 229.382 32.3712 229.43 32.7192 229.526C33.0672 229.622 33.3552 229.73 33.5832 229.85C33.8352 229.502 34.1532 229.22 34.5372 229.004C34.9212 228.788 35.3952 228.68 35.9592 228.68C36.2352 228.68 36.4752 228.704 36.6792 228.752C36.8832 228.8 37.0572 228.86 37.2012 228.932C37.3572 228.992 37.4832 229.058 37.5792 229.13C37.6752 229.19 37.7592 229.238 37.8312 229.274L37.4712 230.156C37.3512 230.072 37.1952 229.988 37.0032 229.904C36.8232 229.808 36.5472 229.76 36.1752 229.76ZM32.8452 232.622C32.8452 232.31 32.8692 231.986 32.9172 231.65C32.9772 231.314 33.0732 231.032 33.2052 230.804C33.0012 230.66 32.7612 230.564 32.4852 230.516C32.2092 230.468 31.9692 230.444 31.7652 230.444C31.4172 230.444 31.1232 230.504 30.8832 230.624C30.6552 230.744 30.4692 230.906 30.3252 231.11C30.1932 231.302 30.0912 231.518 30.0192 231.758C29.9592 231.998 29.9292 232.244 29.9292 232.496V232.622H32.8452ZM42.4872 242.18C41.8032 242.18 41.1732 242.054 40.5972 241.802C40.0332 241.538 39.5412 241.184 39.1212 240.74C38.7012 240.284 38.3712 239.762 38.1312 239.174C37.9032 238.586 37.7892 237.956 37.7892 237.284C37.7892 236.624 37.9032 236.006 38.1312 235.43C38.3712 234.842 38.6952 234.332 39.1032 233.9C39.5232 233.456 40.0212 233.108 40.5972 232.856C41.1732 232.592 41.7972 232.46 42.4692 232.46C43.1532 232.46 43.7772 232.592 44.3412 232.856C44.9172 233.108 45.4092 233.456 45.8172 233.9C46.2252 234.344 46.5432 234.854 46.7712 235.43C46.9992 236.006 47.1132 236.618 47.1132 237.266C47.1132 237.362 47.1132 237.458 47.1132 237.554C47.1132 237.65 47.1072 237.716 47.0952 237.752H39.0672C39.1032 238.256 39.2172 238.724 39.4092 239.156C39.6132 239.576 39.8712 239.942 40.1832 240.254C40.4952 240.566 40.8492 240.812 41.2452 240.992C41.6532 241.16 42.0852 241.244 42.5412 241.244C42.8412 241.244 43.1412 241.202 43.4412 241.118C43.7412 241.034 44.0172 240.92 44.2692 240.776C44.5212 240.632 44.7492 240.458 44.9532 240.254C45.1572 240.038 45.3132 239.804 45.4212 239.552L46.4832 239.84C46.3392 240.188 46.1352 240.506 45.8712 240.794C45.6072 241.07 45.3012 241.316 44.9532 241.532C44.6052 241.736 44.2212 241.892 43.8012 242C43.3812 242.12 42.9432 242.18 42.4872 242.18ZM45.9432 236.816C45.9072 236.312 45.7872 235.856 45.5832 235.448C45.3912 235.028 45.1392 234.668 44.8272 234.368C44.5272 234.068 44.1732 233.834 43.7652 233.666C43.3692 233.498 42.9432 233.414 42.4872 233.414C42.0312 233.414 41.5992 233.498 41.1912 233.666C40.7832 233.834 40.4232 234.068 40.1112 234.368C39.8112 234.668 39.5652 235.028 39.3732 235.448C39.1932 235.868 39.0852 236.324 39.0492 236.816H45.9432ZM49.1816 242V232.622H50.4056V242H49.1816ZM49.1816 230.66V228.86H50.4056V230.66H49.1816ZM56.3956 242.18C55.6636 242.18 54.9496 242.06 54.2536 241.82C53.5576 241.58 52.9576 241.232 52.4536 240.776L53.0116 239.948C53.5396 240.38 54.0736 240.704 54.6136 240.92C55.1656 241.136 55.7536 241.244 56.3776 241.244C57.1336 241.244 57.7336 241.094 58.1776 240.794C58.6336 240.482 58.8616 240.044 58.8616 239.48C58.8616 239.216 58.8016 239 58.6816 238.832C58.5616 238.652 58.3816 238.496 58.1416 238.364C57.9136 238.232 57.6196 238.118 57.2596 238.022C56.9116 237.914 56.5036 237.806 56.0356 237.698C55.4956 237.566 55.0276 237.434 54.6316 237.302C54.2356 237.17 53.9056 237.02 53.6416 236.852C53.3896 236.684 53.1976 236.48 53.0656 236.24C52.9456 235.988 52.8856 235.676 52.8856 235.304C52.8856 234.836 52.9756 234.422 53.1556 234.062C53.3476 233.702 53.5996 233.408 53.9116 233.18C54.2356 232.94 54.6076 232.76 55.0276 232.64C55.4596 232.52 55.9156 232.46 56.3956 232.46C57.1156 232.46 57.7696 232.58 58.3576 232.82C58.9456 233.048 59.4196 233.354 59.7796 233.738L59.1856 234.458C58.8376 234.098 58.4116 233.828 57.9076 233.648C57.4156 233.468 56.8996 233.378 56.3596 233.378C56.0356 233.378 55.7356 233.414 55.4596 233.486C55.1836 233.546 54.9376 233.648 54.7216 233.792C54.5176 233.936 54.3556 234.122 54.2356 234.35C54.1156 234.566 54.0556 234.824 54.0556 235.124C54.0556 235.376 54.0976 235.58 54.1816 235.736C54.2656 235.892 54.4036 236.03 54.5956 236.15C54.7876 236.258 55.0276 236.36 55.3156 236.456C55.6156 236.54 55.9756 236.63 56.3956 236.726C56.9956 236.87 57.5236 237.014 57.9796 237.158C58.4356 237.302 58.8136 237.47 59.1136 237.662C59.4256 237.854 59.6596 238.088 59.8156 238.364C59.9716 238.64 60.0496 238.976 60.0496 239.372C60.0496 240.236 59.7196 240.92 59.0596 241.424C58.3996 241.928 57.5116 242.18 56.3956 242.18ZM66.283 242.18C65.599 242.18 64.969 242.054 64.393 241.802C63.829 241.538 63.337 241.184 62.917 240.74C62.497 240.284 62.167 239.762 61.927 239.174C61.699 238.586 61.585 237.956 61.585 237.284C61.585 236.624 61.699 236.006 61.927 235.43C62.167 234.842 62.491 234.332 62.899 233.9C63.319 233.456 63.817 233.108 64.393 232.856C64.969 232.592 65.593 232.46 66.265 232.46C66.949 232.46 67.573 232.592 68.137 232.856C68.713 233.108 69.205 233.456 69.613 233.9C70.021 234.344 70.339 234.854 70.567 235.43C70.795 236.006 70.909 236.618 70.909 237.266C70.909 237.362 70.909 237.458 70.909 237.554C70.909 237.65 70.903 237.716 70.891 237.752H62.863C62.899 238.256 63.013 238.724 63.205 239.156C63.409 239.576 63.667 239.942 63.979 240.254C64.291 240.566 64.645 240.812 65.041 240.992C65.449 241.16 65.881 241.244 66.337 241.244C66.637 241.244 66.937 241.202 67.237 241.118C67.537 241.034 67.813 240.92 68.065 240.776C68.317 240.632 68.545 240.458 68.749 240.254C68.953 240.038 69.109 239.804 69.217 239.552L70.279 239.84C70.135 240.188 69.931 240.506 69.667 240.794C69.403 241.07 69.097 241.316 68.749 241.532C68.401 241.736 68.017 241.892 67.597 242C67.177 242.12 66.739 242.18 66.283 242.18ZM69.739 236.816C69.703 236.312 69.583 235.856 69.379 235.448C69.187 235.028 68.935 234.668 68.623 234.368C68.323 234.068 67.969 233.834 67.561 233.666C67.165 233.498 66.739 233.414 66.283 233.414C65.827 233.414 65.395 233.498 64.987 233.666C64.579 233.834 64.219 234.068 63.907 234.368C63.607 234.668 63.361 235.028 63.169 235.448C62.989 235.868 62.881 236.324 62.845 236.816H69.739ZM80.8615 242H79.6375V236.762C79.6375 235.646 79.4695 234.836 79.1335 234.332C78.8095 233.828 78.3055 233.576 77.6215 233.576C77.2615 233.576 76.9015 233.642 76.5415 233.774C76.1815 233.906 75.8455 234.092 75.5335 234.332C75.2335 234.572 74.9635 234.86 74.7235 235.196C74.4835 235.52 74.3095 235.874 74.2015 236.258V242H72.9775V232.622H74.0935V234.746C74.4775 234.062 75.0235 233.51 75.7315 233.09C76.4515 232.67 77.2315 232.46 78.0715 232.46C78.5875 232.46 79.0255 232.556 79.3855 232.748C79.7455 232.94 80.0335 233.21 80.2495 233.558C80.4655 233.906 80.6215 234.332 80.7175 234.836C80.8135 235.34 80.8615 235.898 80.8615 236.51V242ZM97.9055 240.128C96.7175 241.436 95.3495 242.09 93.8015 242.09C92.9375 242.09 92.1395 241.904 91.4075 241.532C90.6875 241.16 90.0575 240.668 89.5175 240.056C88.9895 239.444 88.5755 238.754 88.2755 237.986C87.9755 237.206 87.8255 236.408 87.8255 235.592C87.8255 234.74 87.9695 233.924 88.2575 233.144C88.5575 232.364 88.9715 231.68 89.4995 231.092C90.0275 230.492 90.6515 230.018 91.3715 229.67C92.0915 229.31 92.8775 229.13 93.7295 229.13C94.3535 229.13 94.9235 229.202 95.4395 229.346C95.9555 229.478 96.4115 229.67 96.8075 229.922C97.2155 230.162 97.5635 230.456 97.8515 230.804C98.1515 231.14 98.4035 231.512 98.6075 231.92L97.6355 232.568C97.2155 231.776 96.6695 231.194 95.9975 230.822C95.3255 230.45 94.5635 230.264 93.7115 230.264C93.0035 230.264 92.3615 230.414 91.7855 230.714C91.2215 231.014 90.7355 231.416 90.3275 231.92C89.9315 232.412 89.6255 232.982 89.4095 233.63C89.1935 234.266 89.0855 234.926 89.0855 235.61C89.0855 236.33 89.2055 237.014 89.4455 237.662C89.6975 238.31 90.0395 238.88 90.4715 239.372C90.9035 239.852 91.4075 240.236 91.9835 240.524C92.5715 240.812 93.2075 240.956 93.8915 240.956C94.6235 240.956 95.3195 240.788 95.9795 240.452C96.6515 240.104 97.2935 239.558 97.9055 238.814V236.69H95.0615V235.718H98.9675V242H97.9055V240.128ZM106.164 233.702C105.336 233.726 104.616 233.954 104.004 234.386C103.392 234.818 102.96 235.412 102.708 236.168V242H101.484V232.622H102.636V234.872C102.984 234.152 103.452 233.588 104.04 233.18C104.628 232.772 105.258 232.568 105.93 232.568C106.026 232.568 106.104 232.574 106.164 232.586V233.702ZM111.496 242.18C110.812 242.18 110.188 242.054 109.624 241.802C109.06 241.538 108.568 241.184 108.148 240.74C107.74 240.296 107.422 239.78 107.194 239.192C106.966 238.604 106.852 237.986 106.852 237.338C106.852 236.678 106.966 236.054 107.194 235.466C107.434 234.878 107.758 234.362 108.166 233.918C108.586 233.474 109.078 233.12 109.642 232.856C110.206 232.592 110.824 232.46 111.496 232.46C112.168 232.46 112.786 232.592 113.35 232.856C113.926 233.12 114.418 233.474 114.826 233.918C115.246 234.362 115.57 234.878 115.798 235.466C116.038 236.054 116.158 236.678 116.158 237.338C116.158 237.986 116.044 238.604 115.816 239.192C115.588 239.78 115.264 240.296 114.844 240.74C114.436 241.184 113.944 241.538 113.368 241.802C112.804 242.054 112.18 242.18 111.496 242.18ZM108.094 237.356C108.094 237.884 108.184 238.376 108.364 238.832C108.544 239.276 108.784 239.672 109.084 240.02C109.396 240.356 109.756 240.62 110.164 240.812C110.584 241.004 111.028 241.1 111.496 241.1C111.964 241.1 112.402 241.004 112.81 240.812C113.23 240.608 113.596 240.338 113.908 240.002C114.22 239.654 114.466 239.252 114.646 238.796C114.826 238.34 114.916 237.848 114.916 237.32C114.916 236.804 114.826 236.318 114.646 235.862C114.466 235.394 114.22 234.992 113.908 234.656C113.596 234.308 113.23 234.038 112.81 233.846C112.402 233.642 111.964 233.54 111.496 233.54C111.028 233.54 110.59 233.642 110.182 233.846C109.774 234.038 109.414 234.308 109.102 234.656C108.79 235.004 108.544 235.412 108.364 235.88C108.184 236.336 108.094 236.828 108.094 237.356ZM121.319 242.18C120.299 242.18 119.537 241.844 119.033 241.172C118.541 240.488 118.295 239.474 118.295 238.13V232.622H119.519V237.914C119.519 240.038 120.245 241.1 121.697 241.1C122.057 241.1 122.411 241.04 122.759 240.92C123.107 240.8 123.425 240.626 123.713 240.398C124.013 240.17 124.277 239.9 124.505 239.588C124.745 239.276 124.937 238.922 125.081 238.526V232.622H126.305V240.416C126.305 240.752 126.449 240.92 126.737 240.92V242C126.593 242.024 126.473 242.036 126.377 242.036C126.293 242.036 126.233 242.036 126.197 242.036C125.909 242.024 125.675 241.922 125.495 241.73C125.315 241.538 125.225 241.28 125.225 240.956V239.876C124.817 240.608 124.259 241.178 123.551 241.586C122.855 241.982 122.111 242.18 121.319 242.18ZM134.041 242.18C133.249 242.18 132.547 241.982 131.935 241.586C131.335 241.178 130.849 240.668 130.477 240.056V245.834H129.253V232.622H130.351V234.44C130.735 233.852 131.233 233.378 131.845 233.018C132.457 232.646 133.123 232.46 133.843 232.46C134.491 232.46 135.085 232.598 135.625 232.874C136.165 233.138 136.633 233.498 137.029 233.954C137.425 234.398 137.731 234.914 137.947 235.502C138.175 236.09 138.289 236.696 138.289 237.32C138.289 237.98 138.187 238.604 137.983 239.192C137.779 239.78 137.485 240.296 137.101 240.74C136.729 241.184 136.279 241.538 135.751 241.802C135.235 242.054 134.665 242.18 134.041 242.18ZM133.699 241.1C134.203 241.1 134.659 240.992 135.067 240.776C135.487 240.56 135.841 240.278 136.129 239.93C136.429 239.57 136.657 239.168 136.813 238.724C136.969 238.268 137.047 237.8 137.047 237.32C137.047 236.816 136.957 236.336 136.777 235.88C136.597 235.424 136.351 235.022 136.039 234.674C135.727 234.326 135.355 234.05 134.923 233.846C134.503 233.642 134.047 233.54 133.555 233.54C133.243 233.54 132.913 233.606 132.565 233.738C132.229 233.858 131.911 234.026 131.611 234.242C131.323 234.446 131.071 234.692 130.855 234.98C130.651 235.256 130.525 235.55 130.477 235.862V238.742C130.621 239.078 130.801 239.39 131.017 239.678C131.245 239.966 131.497 240.218 131.773 240.434C132.061 240.638 132.367 240.8 132.691 240.92C133.015 241.04 133.351 241.1 133.699 241.1Z" fill="#666666"/>
<path d="M416.86 126.02V128H409.32V126.02H412.06V115.9C411.953 116.06 411.773 116.24 411.52 116.44C411.28 116.627 411.007 116.813 410.7 117C410.393 117.173 410.073 117.32 409.74 117.44C409.42 117.56 409.127 117.62 408.86 117.62V115.58C409.22 115.58 409.587 115.487 409.96 115.3C410.333 115.1 410.673 114.887 410.98 114.66C411.287 114.42 411.54 114.2 411.74 114C411.94 113.8 412.047 113.687 412.06 113.66H414.32V126.02H416.86ZM424.023 128.2C423.023 128.187 422.143 127.953 421.383 127.5C420.623 127.047 419.989 126.473 419.483 125.78C418.976 125.087 418.589 124.32 418.323 123.48C418.069 122.627 417.943 121.8 417.943 121C417.943 120.147 418.083 119.293 418.363 118.44C418.643 117.573 419.043 116.8 419.562 116.12C420.096 115.427 420.736 114.867 421.483 114.44C422.229 114.013 423.076 113.8 424.023 113.8C425.023 113.8 425.896 114.033 426.643 114.5C427.403 114.953 428.036 115.533 428.543 116.24C429.063 116.947 429.449 117.727 429.703 118.58C429.956 119.42 430.083 120.227 430.083 121C430.083 121.867 429.943 122.727 429.663 123.58C429.383 124.433 428.976 125.2 428.443 125.88C427.923 126.56 427.289 127.113 426.543 127.54C425.796 127.967 424.956 128.187 424.023 128.2ZM420.223 121C420.236 121.6 420.323 122.213 420.483 122.84C420.656 123.453 420.896 124.007 421.203 124.5C421.523 124.993 421.916 125.4 422.383 125.72C422.849 126.027 423.396 126.18 424.023 126.18C424.676 126.18 425.236 126.013 425.703 125.68C426.183 125.347 426.576 124.927 426.883 124.42C427.189 123.913 427.416 123.353 427.563 122.74C427.723 122.127 427.803 121.547 427.803 121C427.803 120.4 427.716 119.793 427.543 119.18C427.383 118.553 427.143 117.993 426.823 117.5C426.503 117.007 426.109 116.607 425.643 116.3C425.176 115.98 424.636 115.82 424.023 115.82C423.369 115.82 422.803 115.987 422.323 116.32C421.843 116.653 421.449 117.08 421.143 117.6C420.836 118.107 420.603 118.667 420.443 119.28C420.296 119.88 420.223 120.453 420.223 121ZM437.929 128.2C436.929 128.187 436.049 127.953 435.289 127.5C434.529 127.047 433.895 126.473 433.389 125.78C432.882 125.087 432.495 124.32 432.229 123.48C431.975 122.627 431.849 121.8 431.849 121C431.849 120.147 431.989 119.293 432.269 118.44C432.549 117.573 432.949 116.8 433.469 116.12C434.002 115.427 434.642 114.867 435.389 114.44C436.135 114.013 436.982 113.8 437.929 113.8C438.929 113.8 439.802 114.033 440.549 114.5C441.309 114.953 441.942 115.533 442.449 116.24C442.969 116.947 443.355 117.727 443.609 118.58C443.862 119.42 443.989 120.227 443.989 121C443.989 121.867 443.849 122.727 443.569 123.58C443.289 124.433 442.882 125.2 442.349 125.88C441.829 126.56 441.195 127.113 440.449 127.54C439.702 127.967 438.862 128.187 437.929 128.2ZM434.129 121C434.142 121.6 434.229 122.213 434.389 122.84C434.562 123.453 434.802 124.007 435.109 124.5C435.429 124.993 435.822 125.4 436.289 125.72C436.755 126.027 437.302 126.18 437.929 126.18C438.582 126.18 439.142 126.013 439.609 125.68C440.089 125.347 440.482 124.927 440.789 124.42C441.095 123.913 441.322 123.353 441.469 122.74C441.629 122.127 441.709 121.547 441.709 121C441.709 120.4 441.622 119.793 441.449 119.18C441.289 118.553 441.049 117.993 440.729 117.5C440.409 117.007 440.015 116.607 439.549 116.3C439.082 115.98 438.542 115.82 437.929 115.82C437.275 115.82 436.709 115.987 436.229 116.32C435.749 116.653 435.355 117.08 435.049 117.6C434.742 118.107 434.509 118.667 434.349 119.28C434.202 119.88 434.129 120.453 434.129 121Z" fill="#0D0815"/>
<path d="M408.702 152.284C408.702 151.624 408.816 151 409.044 150.412C409.272 149.824 409.59 149.314 409.998 148.882C410.418 148.438 410.916 148.09 411.492 147.838C412.068 147.586 412.704 147.46 413.4 147.46C414.288 147.46 415.062 147.664 415.722 148.072C416.382 148.468 416.88 149.008 417.216 149.692L416.028 150.07C415.764 149.59 415.392 149.218 414.912 148.954C414.444 148.678 413.922 148.54 413.346 148.54C412.866 148.54 412.416 148.636 411.996 148.828C411.588 149.02 411.228 149.284 410.916 149.62C410.616 149.944 410.376 150.334 410.196 150.79C410.028 151.246 409.944 151.744 409.944 152.284C409.944 152.812 410.034 153.31 410.214 153.778C410.394 154.246 410.64 154.654 410.952 155.002C411.264 155.338 411.624 155.608 412.032 155.812C412.452 156.004 412.896 156.1 413.364 156.1C413.664 156.1 413.958 156.058 414.246 155.974C414.546 155.89 414.822 155.776 415.074 155.632C415.326 155.476 415.542 155.302 415.722 155.11C415.902 154.918 416.028 154.714 416.1 154.498L417.306 154.858C417.174 155.194 416.982 155.506 416.73 155.794C416.478 156.07 416.178 156.316 415.83 156.532C415.494 156.736 415.116 156.892 414.696 157C414.288 157.12 413.862 157.18 413.418 157.18C412.734 157.18 412.104 157.054 411.528 156.802C410.952 156.538 410.454 156.184 410.034 155.74C409.614 155.284 409.284 154.762 409.044 154.174C408.816 153.586 408.702 152.956 408.702 152.284ZM423.299 157.18C422.615 157.18 421.991 157.054 421.427 156.802C420.863 156.538 420.371 156.184 419.951 155.74C419.543 155.296 419.225 154.78 418.997 154.192C418.769 153.604 418.655 152.986 418.655 152.338C418.655 151.678 418.769 151.054 418.997 150.466C419.237 149.878 419.561 149.362 419.969 148.918C420.389 148.474 420.881 148.12 421.445 147.856C422.009 147.592 422.627 147.46 423.299 147.46C423.971 147.46 424.589 147.592 425.153 147.856C425.729 148.12 426.221 148.474 426.629 148.918C427.049 149.362 427.373 149.878 427.601 150.466C427.841 151.054 427.961 151.678 427.961 152.338C427.961 152.986 427.847 153.604 427.619 154.192C427.391 154.78 427.067 155.296 426.647 155.74C426.239 156.184 425.747 156.538 425.171 156.802C424.607 157.054 423.983 157.18 423.299 157.18ZM419.897 152.356C419.897 152.884 419.987 153.376 420.167 153.832C420.347 154.276 420.587 154.672 420.887 155.02C421.199 155.356 421.559 155.62 421.967 155.812C422.387 156.004 422.831 156.1 423.299 156.1C423.767 156.1 424.205 156.004 424.613 155.812C425.033 155.608 425.399 155.338 425.711 155.002C426.023 154.654 426.269 154.252 426.449 153.796C426.629 153.34 426.719 152.848 426.719 152.32C426.719 151.804 426.629 151.318 426.449 150.862C426.269 150.394 426.023 149.992 425.711 149.656C425.399 149.308 425.033 149.038 424.613 148.846C424.205 148.642 423.767 148.54 423.299 148.54C422.831 148.54 422.393 148.642 421.985 148.846C421.577 149.038 421.217 149.308 420.905 149.656C420.593 150.004 420.347 150.412 420.167 150.88C419.987 151.336 419.897 151.828 419.897 152.356ZM433.241 157H432.053V148.684H428.759V147.622H436.535V148.684H433.241V157ZM443.243 157.18C442.451 157.18 441.749 156.982 441.137 156.586C440.537 156.178 440.051 155.668 439.679 155.056V160.834H438.455V147.622H439.553V149.44C439.937 148.852 440.435 148.378 441.047 148.018C441.659 147.646 442.325 147.46 443.045 147.46C443.693 147.46 444.287 147.598 444.827 147.874C445.367 148.138 445.835 148.498 446.231 148.954C446.627 149.398 446.933 149.914 447.149 150.502C447.377 151.09 447.491 151.696 447.491 152.32C447.491 152.98 447.389 153.604 447.185 154.192C446.981 154.78 446.687 155.296 446.303 155.74C445.931 156.184 445.481 156.538 444.953 156.802C444.437 157.054 443.867 157.18 443.243 157.18ZM442.901 156.1C443.405 156.1 443.861 155.992 444.269 155.776C444.689 155.56 445.043 155.278 445.331 154.93C445.631 154.57 445.859 154.168 446.015 153.724C446.171 153.268 446.249 152.8 446.249 152.32C446.249 151.816 446.159 151.336 445.979 150.88C445.799 150.424 445.553 150.022 445.241 149.674C444.929 149.326 444.557 149.05 444.125 148.846C443.705 148.642 443.249 148.54 442.757 148.54C442.445 148.54 442.115 148.606 441.767 148.738C441.431 148.858 441.113 149.026 440.813 149.242C440.525 149.446 440.273 149.692 440.057 149.98C439.853 150.256 439.727 150.55 439.679 150.862V153.742C439.823 154.078 440.003 154.39 440.219 154.678C440.447 154.966 440.699 155.218 440.975 155.434C441.263 155.638 441.569 155.8 441.893 155.92C442.217 156.04 442.553 156.1 442.901 156.1ZM449.445 159.484C449.625 159.652 449.805 159.766 449.985 159.826C450.165 159.886 450.357 159.916 450.561 159.916C450.717 159.916 450.867 159.868 451.011 159.772C451.167 159.688 451.317 159.532 451.461 159.304C451.617 159.088 451.773 158.794 451.929 158.422C452.085 158.05 452.259 157.576 452.451 157L448.365 147.622H449.625L453.099 155.866L456.321 147.622H457.491L453.117 158.548C452.937 159.016 452.751 159.406 452.559 159.718C452.379 160.03 452.187 160.282 451.983 160.474C451.791 160.666 451.581 160.798 451.353 160.87C451.137 160.954 450.897 160.996 450.633 160.996C450.093 160.996 449.679 160.852 449.391 160.564L449.445 159.484ZM457.388 155.938H457.928C458.192 155.878 458.42 155.746 458.612 155.542C458.816 155.326 458.996 155.002 459.152 154.57C459.308 154.126 459.446 153.55 459.566 152.842C459.686 152.122 459.812 151.228 459.944 150.16L460.232 147.622H465.722V155.938H466.874V159.898H465.794V157H458.414V159.898H457.388V155.938ZM464.534 155.938V148.594H461.366L461.096 150.682C460.892 152.17 460.67 153.334 460.43 154.174C460.202 155.014 459.926 155.602 459.602 155.938H464.534ZM470.207 151.672H475.463V147.622H476.669V157H475.463V152.698H470.207V157H469.001V147.622H470.207V151.672ZM480.793 155.272L486.391 147.622H487.381V157H486.175V149.494L480.685 157H479.587V147.622H480.793V155.272ZM495.858 147.622H497.226L493.68 152.158L497.532 157H496.164L492.852 152.716H491.52V157H490.314V147.622H491.52V151.762H492.744L495.858 147.622ZM502.839 157.18C502.155 157.18 501.531 157.054 500.967 156.802C500.403 156.538 499.911 156.184 499.491 155.74C499.083 155.296 498.765 154.78 498.537 154.192C498.309 153.604 498.195 152.986 498.195 152.338C498.195 151.678 498.309 151.054 498.537 150.466C498.777 149.878 499.101 149.362 499.509 148.918C499.929 148.474 500.421 148.12 500.985 147.856C501.549 147.592 502.167 147.46 502.839 147.46C503.511 147.46 504.129 147.592 504.693 147.856C505.269 148.12 505.761 148.474 506.169 148.918C506.589 149.362 506.913 149.878 507.141 150.466C507.381 151.054 507.501 151.678 507.501 152.338C507.501 152.986 507.387 153.604 507.159 154.192C506.931 154.78 506.607 155.296 506.187 155.74C505.779 156.184 505.287 156.538 504.711 156.802C504.147 157.054 503.523 157.18 502.839 157.18ZM499.437 152.356C499.437 152.884 499.527 153.376 499.707 153.832C499.887 154.276 500.127 154.672 500.427 155.02C500.739 155.356 501.099 155.62 501.507 155.812C501.927 156.004 502.371 156.1 502.839 156.1C503.307 156.1 503.745 156.004 504.153 155.812C504.573 155.608 504.939 155.338 505.251 155.002C505.563 154.654 505.809 154.252 505.989 153.796C506.169 153.34 506.259 152.848 506.259 152.32C506.259 151.804 506.169 151.318 505.989 150.862C505.809 150.394 505.563 149.992 505.251 149.656C504.939 149.308 504.573 149.038 504.153 148.846C503.745 148.642 503.307 148.54 502.839 148.54C502.371 148.54 501.933 148.642 501.525 148.846C501.117 149.038 500.757 149.308 500.445 149.656C500.133 150.004 499.887 150.412 499.707 150.88C499.527 151.336 499.437 151.828 499.437 152.356ZM514.372 147.622C514.708 147.622 515.014 147.682 515.29 147.802C515.578 147.922 515.824 148.09 516.028 148.306C516.244 148.51 516.406 148.75 516.514 149.026C516.634 149.302 516.694 149.602 516.694 149.926C516.694 150.142 516.664 150.358 516.604 150.574C516.556 150.79 516.478 151 516.37 151.204C516.262 151.396 516.124 151.576 515.956 151.744C515.788 151.9 515.59 152.026 515.362 152.122C515.89 152.266 516.304 152.542 516.604 152.95C516.904 153.358 517.054 153.85 517.054 154.426C517.054 154.81 516.982 155.158 516.838 155.47C516.706 155.782 516.514 156.052 516.262 156.28C516.022 156.508 515.734 156.688 515.398 156.82C515.062 156.94 514.696 157 514.3 157H509.782V147.622H514.372ZM513.886 151.762C514.378 151.762 514.768 151.606 515.056 151.294C515.344 150.982 515.488 150.586 515.488 150.106C515.488 149.686 515.368 149.32 515.128 149.008C514.888 148.696 514.516 148.54 514.012 148.54H510.97V151.762H513.886ZM514.174 156.082C514.426 156.082 514.654 156.034 514.858 155.938C515.074 155.842 515.254 155.716 515.398 155.56C515.542 155.392 515.656 155.206 515.74 155.002C515.824 154.798 515.866 154.582 515.866 154.354C515.866 153.922 515.716 153.538 515.416 153.202C515.128 152.866 514.726 152.698 514.21 152.698H510.97V156.082H514.174Z" fill="#666666"/>
<path d="M328.722 55C328.722 53.068 328.848 51.388 329.1 49.96C329.38 48.504 329.814 47.23 330.402 46.138C331.018 45.046 331.816 44.094 332.796 43.282C333.776 42.47 334.98 41.714 336.408 41.014C337.332 40.566 338.242 40.146 339.138 39.754C340.034 39.334 340.846 38.858 341.574 38.326C342.302 37.794 342.89 37.192 343.338 36.52C343.786 35.82 344.01 34.98 344.01 34C344.01 32.74 343.618 31.746 342.834 31.018C342.078 30.262 341 29.884 339.6 29.884C338.816 29.884 338.06 29.996 337.332 30.22C336.632 30.444 335.974 30.738 335.358 31.102C334.742 31.438 334.182 31.816 333.678 32.236C333.174 32.656 332.74 33.062 332.376 33.454L328.848 29.758C329.212 29.31 329.744 28.806 330.444 28.246C331.144 27.658 331.97 27.112 332.922 26.608C333.902 26.104 335.008 25.684 336.24 25.348C337.472 24.984 338.83 24.802 340.314 24.802C341.938 24.802 343.366 25.026 344.598 25.474C345.858 25.922 346.908 26.552 347.748 27.364C348.616 28.148 349.26 29.1 349.68 30.22C350.128 31.34 350.352 32.572 350.352 33.916C350.352 35.204 350.156 36.324 349.764 37.276C349.372 38.2 348.84 39.026 348.168 39.754C347.524 40.482 346.754 41.126 345.858 41.686C344.99 42.218 344.052 42.722 343.044 43.198C341.98 43.73 341.014 44.248 340.146 44.752C339.306 45.228 338.578 45.732 337.962 46.264C337.374 46.796 336.912 47.356 336.576 47.944C336.268 48.532 336.114 49.19 336.114 49.918H350.394V55H328.722ZM367.253 55.42C365.125 55.392 363.249 54.916 361.625 53.992C360.029 53.04 358.685 51.836 357.593 50.38C356.501 48.896 355.675 47.272 355.115 45.508C354.583 43.716 354.317 41.98 354.317 40.3C354.317 38.508 354.611 36.716 355.199 34.924C355.815 33.104 356.683 31.48 357.803 30.052C358.923 28.596 360.281 27.42 361.877 26.524C363.473 25.628 365.265 25.18 367.253 25.18C369.381 25.18 371.257 25.67 372.881 26.65C374.505 27.602 375.863 28.82 376.955 30.304C378.047 31.788 378.859 33.426 379.391 35.218C379.951 36.982 380.231 38.676 380.231 40.3C380.231 42.12 379.923 43.926 379.307 45.718C378.719 47.51 377.865 49.134 376.745 50.59C375.625 52.018 374.267 53.18 372.671 54.076C371.075 54.972 369.269 55.42 367.253 55.42ZM360.155 40.3C360.183 41.476 360.337 42.652 360.617 43.828C360.925 45.004 361.359 46.082 361.919 47.062C362.507 48.014 363.235 48.798 364.103 49.414C364.999 50.002 366.049 50.296 367.253 50.296C368.513 50.296 369.591 49.974 370.487 49.33C371.383 48.686 372.111 47.874 372.671 46.894C373.259 45.886 373.693 44.808 373.973 43.66C374.253 42.484 374.393 41.364 374.393 40.3C374.393 39.124 374.239 37.948 373.931 36.772C373.623 35.596 373.175 34.532 372.587 33.58C371.999 32.6 371.257 31.816 370.361 31.228C369.465 30.612 368.429 30.304 367.253 30.304C366.021 30.304 364.957 30.626 364.061 31.27C363.165 31.914 362.423 32.74 361.835 33.748C361.275 34.728 360.855 35.806 360.575 36.982C360.295 38.158 360.155 39.264 360.155 40.3ZM383.724 55C383.724 53.068 383.85 51.388 384.102 49.96C384.382 48.504 384.816 47.23 385.404 46.138C386.02 45.046 386.818 44.094 387.798 43.282C388.778 42.47 389.982 41.714 391.41 41.014C392.334 40.566 393.244 40.146 394.14 39.754C395.036 39.334 395.848 38.858 396.576 38.326C397.304 37.794 397.892 37.192 398.34 36.52C398.788 35.82 399.012 34.98 399.012 34C399.012 32.74 398.62 31.746 397.836 31.018C397.08 30.262 396.002 29.884 394.602 29.884C393.818 29.884 393.062 29.996 392.334 30.22C391.634 30.444 390.976 30.738 390.36 31.102C389.744 31.438 389.184 31.816 388.68 32.236C388.176 32.656 387.742 33.062 387.378 33.454L383.85 29.758C384.214 29.31 384.746 28.806 385.446 28.246C386.146 27.658 386.972 27.112 387.924 26.608C388.904 26.104 390.01 25.684 391.242 25.348C392.474 24.984 393.832 24.802 395.316 24.802C396.94 24.802 398.368 25.026 399.6 25.474C400.86 25.922 401.91 26.552 402.75 27.364C403.618 28.148 404.262 29.1 404.682 30.22C405.13 31.34 405.354 32.572 405.354 33.916C405.354 35.204 405.158 36.324 404.766 37.276C404.374 38.2 403.842 39.026 403.17 39.754C402.526 40.482 401.756 41.126 400.86 41.686C399.992 42.218 399.054 42.722 398.046 43.198C396.982 43.73 396.016 44.248 395.148 44.752C394.308 45.228 393.58 45.732 392.964 46.264C392.376 46.796 391.914 47.356 391.578 47.944C391.27 48.532 391.116 49.19 391.116 49.918H405.396V55H383.724ZM427.211 49.918V55H410.327V49.918H416.123V30.514C415.899 30.85 415.521 31.228 414.989 31.648C414.485 32.04 413.897 32.432 413.225 32.824C412.581 33.188 411.909 33.496 411.209 33.748C410.537 34 409.921 34.126 409.361 34.126V28.918C410.117 28.918 410.887 28.722 411.671 28.33C412.455 27.91 413.169 27.462 413.813 26.986C414.485 26.482 415.031 26.02 415.451 25.6C415.871 25.18 416.095 24.942 416.123 24.886H421.877V49.918H427.211Z" fill="#0D0815"/>
<circle r="8" transform="matrix(0 -1 -1 0 416 85)" fill="#744CC6"/>
<path d="M2.722 126C2.722 123.732 2.918 121.814 3.31 120.246C3.73 118.65 4.388 117.292 5.284 116.172C6.208 115.024 7.426 113.988 8.938 113.064C9.918 112.476 10.926 111.93 11.962 111.426C13.026 110.894 14.006 110.348 14.902 109.788C15.826 109.2 16.568 108.528 17.128 107.772C17.716 106.988 18.01 106.05 18.01 104.958C18.01 103.726 17.618 102.746 16.834 102.018C16.078 101.262 15 100.884 13.6 100.884C12.536 100.884 11.542 101.08 10.618 101.472C9.722 101.836 8.91 102.298 8.182 102.858C7.482 103.39 6.88 103.922 6.376 104.454L2.848 100.758C3.352 100.17 4.122 99.498 5.158 98.742C6.222 97.958 7.524 97.272 9.064 96.684C10.604 96.096 12.354 95.802 14.314 95.802C16.498 95.802 18.332 96.194 19.816 96.978C21.3 97.734 22.42 98.784 23.176 100.128C23.96 101.444 24.352 102.97 24.352 104.706C24.352 106.386 23.988 107.814 23.26 108.99C22.56 110.138 21.65 111.118 20.53 111.93C19.41 112.742 18.248 113.498 17.044 114.198C15.112 115.234 13.642 116.116 12.634 116.844C11.654 117.572 10.954 118.258 10.534 118.902C10.114 119.518 9.778 120.19 9.526 120.918H24.394V126H2.722ZM41.2527 126.42C39.1247 126.392 37.2487 125.916 35.6247 124.992C34.0287 124.068 32.6847 122.864 31.5927 121.38C30.5007 119.868 29.6747 118.23 29.1147 116.466C28.5827 114.702 28.3167 112.98 28.3167 111.3C28.3167 109.508 28.6107 107.716 29.1987 105.924C29.7867 104.132 30.6407 102.508 31.7607 101.052C32.9087 99.568 34.2807 98.392 35.8767 97.524C37.4727 96.628 39.2647 96.18 41.2527 96.18C43.4087 96.18 45.2847 96.656 46.8807 97.608C48.5047 98.56 49.8627 99.792 50.9547 101.304C52.0467 102.816 52.8587 104.454 53.3907 106.218C53.9507 107.982 54.2307 109.676 54.2307 111.3C54.2307 113.12 53.9367 114.926 53.3487 116.718C52.7607 118.482 51.8927 120.106 50.7447 121.59C49.6247 123.046 48.2667 124.222 46.6707 125.118C45.0747 125.986 43.2687 126.42 41.2527 126.42ZM34.1547 111.3C34.1827 112.448 34.3367 113.61 34.6167 114.786C34.9247 115.962 35.3587 117.04 35.9187 118.02C36.5067 119 37.2347 119.798 38.1027 120.414C38.9987 121.002 40.0487 121.296 41.2527 121.296C42.5127 121.296 43.5907 120.974 44.4867 120.33C45.3827 119.686 46.1107 118.86 46.6707 117.852C47.2587 116.844 47.6927 115.766 47.9727 114.618C48.2527 113.47 48.3927 112.364 48.3927 111.3C48.3927 110.152 48.2387 108.99 47.9307 107.814C47.6227 106.638 47.1747 105.56 46.5867 104.58C45.9987 103.6 45.2567 102.816 44.3607 102.228C43.4647 101.612 42.4287 101.304 41.2527 101.304C40.0207 101.304 38.9567 101.626 38.0607 102.27C37.1647 102.914 36.4227 103.74 35.8347 104.748C35.2467 105.756 34.8127 106.848 34.5327 108.024C34.2807 109.172 34.1547 110.264 34.1547 111.3ZM75.658 120.918V126H58.774V120.918H64.57V101.514C64.262 101.934 63.716 102.438 62.932 103.026C62.148 103.586 61.28 104.076 60.328 104.496C59.404 104.916 58.564 105.126 57.808 105.126V99.918C58.536 99.918 59.292 99.722 60.076 99.33C60.86 98.938 61.588 98.49 62.26 97.986C62.932 97.454 63.478 96.992 63.898 96.6C64.346 96.18 64.57 95.942 64.57 95.886H70.324V120.918H75.658ZM100.406 116.046C100.406 117.978 99.9158 119.728 98.9358 121.296C97.9838 122.864 96.6818 124.11 95.0298 125.034C93.4058 125.958 91.5578 126.42 89.4858 126.42C87.2458 126.42 85.2998 125.874 83.6478 124.782C81.9958 123.69 80.7218 122.122 79.8258 120.078C78.9578 118.034 78.5238 115.584 78.5238 112.728C78.5238 107.296 79.5598 103.152 81.6318 100.296C83.7318 97.412 86.5458 95.97 90.0738 95.97C91.9498 95.97 93.6718 96.376 95.2398 97.188C96.8358 98 98.1798 99.162 99.2718 100.674L96.0378 104.202C95.3658 103.166 94.4978 102.354 93.4338 101.766C92.3698 101.15 91.2218 100.842 89.9898 100.842C88.1138 100.842 86.6158 101.598 85.4958 103.11C84.3758 104.594 83.7878 106.68 83.7318 109.368C84.3198 108.36 85.1598 107.562 86.2518 106.974C87.3438 106.386 88.5898 106.092 89.9898 106.092C91.9498 106.092 93.7138 106.54 95.2818 107.436C96.8498 108.304 98.0958 109.494 99.0198 111.006C99.9438 112.49 100.406 114.17 100.406 116.046ZM89.5278 121.674C90.5078 121.674 91.4178 121.422 92.2578 120.918C93.0978 120.386 93.7698 119.7 94.2738 118.86C94.7778 117.992 95.0298 117.054 95.0298 116.046C95.0298 115.038 94.7778 114.128 94.2738 113.316C93.7698 112.476 93.0978 111.818 92.2578 111.342C91.4178 110.838 90.5078 110.586 89.5278 110.586C88.5198 110.586 87.5958 110.838 86.7558 111.342C85.9158 111.818 85.2438 112.476 84.7398 113.316C84.2638 114.128 84.0258 115.038 84.0258 116.046C84.0258 117.054 84.2778 117.992 84.7818 118.86C85.2858 119.7 85.9438 120.386 86.7558 120.918C87.5958 121.422 88.5198 121.674 89.5278 121.674Z" fill="#0D0815"/>
<circle r="8" transform="matrix(0 -1 -1 0 8 170)" fill="#EDE4FF"/>
<defs>
<linearGradient id="paint0_linear" x1="23" y1="167" x2="514" y2="10.9999" gradientUnits="userSpaceOnUse">
<stop stop-color="#EDE4FF"/>
<stop offset="1" stop-color="#744CC6"/>
</linearGradient>
</defs>
</svg>
