<svg width="255" height="255" viewBox="0 0 255 255" fill="none" xmlns="http://www.w3.org/2000/svg">
<circle opacity="0.3" r="115.236" transform="matrix(4.37114e-08 -1 -1 -4.37114e-08 127.236 127.764)" stroke="#CACACA" stroke-width="24" stroke-linecap="round"/>
<path d="M127.236 12.528C146.93 12.528 166.295 17.575 183.483 27.1874C200.671 36.7998 215.109 50.6568 225.419 67.436C235.729 84.2151 241.567 103.357 242.375 123.033C243.183 142.71 238.936 162.266 230.037 179.834C221.138 197.403 207.886 212.398 191.544 223.388C175.202 234.378 156.316 240.996 136.689 242.612C117.062 244.227 97.3484 240.786 79.4296 232.616C61.5107 224.446 45.9847 211.82 34.3331 195.943" stroke="url(#paint0_linear)" stroke-width="24" stroke-linecap="round"/>
<rect x="119.555" y="5" width="15.3648" height="15.3648" rx="7.6824" fill="white"/>
<path d="M115.836 111.03C115.836 112.481 115.439 113.761 114.646 114.872C113.853 115.96 112.799 116.799 111.484 117.388C110.169 117.977 108.73 118.272 107.166 118.272C105.557 118.272 104.095 117.955 102.78 117.32C101.488 116.685 100.457 115.813 99.686 114.702C98.938 113.569 98.564 112.288 98.564 110.86C98.564 109.908 98.768 109.058 99.176 108.31C99.6067 107.539 100.139 106.882 100.774 106.338C101.431 105.794 102.089 105.375 102.746 105.08C101.817 104.672 101.023 104.049 100.366 103.21C99.7087 102.371 99.38 101.419 99.38 100.354C99.38 99.3113 99.6067 98.3933 100.06 97.6C100.536 96.784 101.159 96.104 101.93 95.56C102.701 94.9933 103.539 94.574 104.446 94.302C105.375 94.0073 106.293 93.86 107.2 93.86C108.129 93.86 109.047 94.0073 109.954 94.302C110.883 94.574 111.733 94.982 112.504 95.526C113.297 96.07 113.921 96.75 114.374 97.566C114.85 98.3593 115.088 99.2773 115.088 100.32C115.088 101.363 114.748 102.315 114.068 103.176C113.388 104.037 112.583 104.672 111.654 105.08C112.742 105.579 113.705 106.338 114.544 107.358C115.405 108.355 115.836 109.579 115.836 111.03ZM103.154 100.49C103.154 101.193 103.358 101.793 103.766 102.292C104.197 102.791 104.718 103.165 105.33 103.414C105.965 103.663 106.588 103.788 107.2 103.788C107.835 103.788 108.458 103.663 109.07 103.414C109.705 103.142 110.226 102.757 110.634 102.258C111.065 101.759 111.28 101.147 111.28 100.422C111.28 99.4247 110.861 98.6427 110.022 98.076C109.206 97.4867 108.265 97.192 107.2 97.192C106.112 97.192 105.16 97.4867 104.344 98.076C103.551 98.6653 103.154 99.47 103.154 100.49ZM112.062 110.792C112.062 109.908 111.813 109.16 111.314 108.548C110.838 107.936 110.226 107.471 109.478 107.154C108.73 106.814 107.971 106.644 107.2 106.644C106.361 106.644 105.579 106.814 104.854 107.154C104.129 107.494 103.539 107.981 103.086 108.616C102.633 109.228 102.406 109.953 102.406 110.792C102.406 111.653 102.644 112.39 103.12 113.002C103.596 113.614 104.197 114.09 104.922 114.43C105.67 114.747 106.441 114.906 107.234 114.906C108.05 114.906 108.821 114.736 109.546 114.396C110.294 114.033 110.895 113.546 111.348 112.934C111.824 112.299 112.062 111.585 112.062 110.792ZM126.532 118.34C124.809 118.34 123.245 117.943 121.84 117.15C120.457 116.357 119.403 115.291 118.678 113.954L120.922 111.812C121.557 112.787 122.373 113.569 123.37 114.158C124.367 114.725 125.433 115.008 126.566 115.008C127.949 115.008 129.093 114.577 130 113.716C130.929 112.832 131.394 111.699 131.394 110.316C131.394 108.956 130.952 107.857 130.068 107.018C129.207 106.157 128.13 105.726 126.838 105.726C125.977 105.726 125.161 105.919 124.39 106.304C123.642 106.689 123.041 107.233 122.588 107.936H119.256L122.01 93.86H133.808V97.294H124.73L123.506 103.856C123.891 103.448 124.413 103.119 125.07 102.87C125.727 102.621 126.475 102.496 127.314 102.496C128.81 102.496 130.159 102.825 131.36 103.482C132.561 104.139 133.502 105.046 134.182 106.202C134.885 107.358 135.236 108.695 135.236 110.214C135.236 111.823 134.851 113.24 134.08 114.464C133.332 115.688 132.301 116.64 130.986 117.32C129.671 118 128.187 118.34 126.532 118.34ZM143.208 103.618C142.211 103.618 141.304 103.391 140.488 102.938C139.672 102.485 139.015 101.884 138.516 101.136C138.04 100.365 137.802 99.5153 137.802 98.586C137.802 97.634 138.04 96.784 138.516 96.036C139.015 95.2653 139.672 94.6533 140.488 94.2C141.304 93.7467 142.211 93.52 143.208 93.52C144.228 93.52 145.146 93.7467 145.962 94.2C146.778 94.6533 147.424 95.2653 147.9 96.036C148.376 96.784 148.614 97.634 148.614 98.586C148.614 99.5153 148.376 100.365 147.9 101.136C147.424 101.884 146.778 102.485 145.962 102.938C145.146 103.391 144.228 103.618 143.208 103.618ZM139.332 116.64L148.886 105.318L157.862 93.656L159.63 95.186L150.246 106.372L141.066 118.204L139.332 116.64ZM143.208 101.68C143.979 101.68 144.625 101.374 145.146 100.762C145.69 100.127 145.962 99.402 145.962 98.586C145.962 97.7247 145.69 96.988 145.146 96.376C144.602 95.764 143.956 95.458 143.208 95.458C142.46 95.458 141.814 95.7753 141.27 96.41C140.726 97.022 140.454 97.7473 140.454 98.586C140.454 99.4247 140.726 100.15 141.27 100.762C141.814 101.374 142.46 101.68 143.208 101.68ZM155.72 118.34C154.723 118.34 153.816 118.113 153 117.66C152.184 117.207 151.527 116.606 151.028 115.858C150.552 115.087 150.314 114.226 150.314 113.274C150.314 112.345 150.552 111.506 151.028 110.758C151.527 109.987 152.184 109.375 153 108.922C153.816 108.469 154.723 108.242 155.72 108.242C156.74 108.242 157.658 108.469 158.474 108.922C159.29 109.375 159.936 109.987 160.412 110.758C160.888 111.506 161.126 112.345 161.126 113.274C161.126 114.226 160.888 115.087 160.412 115.858C159.936 116.606 159.29 117.207 158.474 117.66C157.658 118.113 156.74 118.34 155.72 118.34ZM155.72 116.402C156.491 116.402 157.137 116.096 157.658 115.484C158.202 114.872 158.474 114.135 158.474 113.274C158.474 112.435 158.202 111.71 157.658 111.098C157.114 110.486 156.468 110.18 155.72 110.18C154.972 110.18 154.326 110.497 153.782 111.132C153.238 111.744 152.966 112.458 152.966 113.274C152.966 114.135 153.238 114.872 153.782 115.484C154.326 116.096 154.972 116.402 155.72 116.402Z" fill="#36255A"/>
<path d="M60.294 138.332C60.294 137.819 60.3827 137.333 60.56 136.876C60.7374 136.419 60.9847 136.022 61.302 135.686C61.6287 135.341 62.016 135.07 62.464 134.874C62.912 134.678 63.4067 134.58 63.948 134.58C64.6387 134.58 65.2407 134.739 65.754 135.056C66.2674 135.364 66.6547 135.784 66.916 136.316L65.992 136.61C65.7867 136.237 65.4974 135.947 65.124 135.742C64.76 135.527 64.354 135.42 63.906 135.42C63.5327 135.42 63.1827 135.495 62.856 135.644C62.5387 135.793 62.2587 135.999 62.016 136.26C61.7827 136.512 61.596 136.815 61.456 137.17C61.3254 137.525 61.26 137.912 61.26 138.332C61.26 138.743 61.33 139.13 61.47 139.494C61.61 139.858 61.8014 140.175 62.044 140.446C62.2867 140.707 62.5667 140.917 62.884 141.076C63.2107 141.225 63.556 141.3 63.92 141.3C64.1534 141.3 64.382 141.267 64.606 141.202C64.8394 141.137 65.054 141.048 65.25 140.936C65.446 140.815 65.614 140.679 65.754 140.53C65.894 140.381 65.992 140.222 66.048 140.054L66.986 140.334C66.8834 140.595 66.734 140.838 66.538 141.062C66.342 141.277 66.1087 141.468 65.838 141.636C65.5767 141.795 65.2827 141.916 64.956 142C64.6387 142.093 64.3074 142.14 63.962 142.14C63.43 142.14 62.94 142.042 62.492 141.846C62.044 141.641 61.6567 141.365 61.33 141.02C61.0034 140.665 60.7467 140.259 60.56 139.802C60.3827 139.345 60.294 138.855 60.294 138.332ZM71.5076 142.14C70.9756 142.14 70.4903 142.042 70.0516 141.846C69.6129 141.641 69.2303 141.365 68.9036 141.02C68.5863 140.675 68.3389 140.273 68.1616 139.816C67.9843 139.359 67.8956 138.878 67.8956 138.374C67.8956 137.861 67.9843 137.375 68.1616 136.918C68.3483 136.461 68.6003 136.059 68.9176 135.714C69.2443 135.369 69.6269 135.093 70.0656 134.888C70.5043 134.683 70.9849 134.58 71.5076 134.58C72.0303 134.58 72.5109 134.683 72.9496 134.888C73.3976 135.093 73.7803 135.369 74.0976 135.714C74.4243 136.059 74.6763 136.461 74.8536 136.918C75.0403 137.375 75.1336 137.861 75.1336 138.374C75.1336 138.878 75.0449 139.359 74.8676 139.816C74.6903 140.273 74.4383 140.675 74.1116 141.02C73.7943 141.365 73.4116 141.641 72.9636 141.846C72.5249 142.042 72.0396 142.14 71.5076 142.14ZM68.8616 138.388C68.8616 138.799 68.9316 139.181 69.0716 139.536C69.2116 139.881 69.3983 140.189 69.6316 140.46C69.8743 140.721 70.1543 140.927 70.4716 141.076C70.7983 141.225 71.1436 141.3 71.5076 141.3C71.8716 141.3 72.2123 141.225 72.5296 141.076C72.8563 140.917 73.1409 140.707 73.3836 140.446C73.6263 140.175 73.8176 139.863 73.9576 139.508C74.0976 139.153 74.1676 138.771 74.1676 138.36C74.1676 137.959 74.0976 137.581 73.9576 137.226C73.8176 136.862 73.6263 136.549 73.3836 136.288C73.1409 136.017 72.8563 135.807 72.5296 135.658C72.2123 135.499 71.8716 135.42 71.5076 135.42C71.1436 135.42 70.8029 135.499 70.4856 135.658C70.1683 135.807 69.8883 136.017 69.6456 136.288C69.4029 136.559 69.2116 136.876 69.0716 137.24C68.9316 137.595 68.8616 137.977 68.8616 138.388ZM79.1003 142H78.1763V135.532H75.6143V134.706H81.6623V135.532H79.1003V142ZM86.7392 142.14C86.1232 142.14 85.5772 141.986 85.1012 141.678C84.6345 141.361 84.2565 140.964 83.9672 140.488V144.982H83.0152V134.706H83.8692V136.12C84.1678 135.663 84.5552 135.294 85.0312 135.014C85.5072 134.725 86.0252 134.58 86.5852 134.58C87.0892 134.58 87.5512 134.687 87.9712 134.902C88.3912 135.107 88.7552 135.387 89.0632 135.742C89.3712 136.087 89.6092 136.489 89.7772 136.946C89.9545 137.403 90.0432 137.875 90.0432 138.36C90.0432 138.873 89.9638 139.359 89.8052 139.816C89.6465 140.273 89.4178 140.675 89.1192 141.02C88.8298 141.365 88.4798 141.641 88.0692 141.846C87.6678 142.042 87.2245 142.14 86.7392 142.14ZM86.4732 141.3C86.8652 141.3 87.2198 141.216 87.5372 141.048C87.8638 140.88 88.1392 140.661 88.3632 140.39C88.5965 140.11 88.7738 139.797 88.8952 139.452C89.0165 139.097 89.0772 138.733 89.0772 138.36C89.0772 137.968 89.0072 137.595 88.8672 137.24C88.7272 136.885 88.5358 136.573 88.2932 136.302C88.0505 136.031 87.7612 135.817 87.4252 135.658C87.0985 135.499 86.7438 135.42 86.3612 135.42C86.1185 135.42 85.8618 135.471 85.5912 135.574C85.3298 135.667 85.0825 135.798 84.8492 135.966C84.6252 136.125 84.4292 136.316 84.2612 136.54C84.1025 136.755 84.0045 136.983 83.9672 137.226V139.466C84.0792 139.727 84.2192 139.97 84.3872 140.194C84.5645 140.418 84.7605 140.614 84.9752 140.782C85.1992 140.941 85.4372 141.067 85.6892 141.16C85.9412 141.253 86.2025 141.3 86.4732 141.3ZM91.423 143.932C91.563 144.063 91.703 144.151 91.843 144.198C91.983 144.245 92.1324 144.268 92.291 144.268C92.4124 144.268 92.529 144.231 92.641 144.156C92.7624 144.091 92.879 143.969 92.991 143.792C93.1124 143.624 93.2337 143.395 93.355 143.106C93.4764 142.817 93.6117 142.448 93.761 142L90.583 134.706H91.563L94.265 141.118L96.771 134.706H97.681L94.279 143.204C94.139 143.568 93.9944 143.871 93.845 144.114C93.705 144.357 93.5557 144.553 93.397 144.702C93.2477 144.851 93.0844 144.954 92.907 145.01C92.739 145.075 92.5524 145.108 92.347 145.108C91.927 145.108 91.605 144.996 91.381 144.772L91.423 143.932ZM97.461 141.174H97.881C98.0863 141.127 98.2637 141.025 98.413 140.866C98.5717 140.698 98.7117 140.446 98.833 140.11C98.9543 139.765 99.0617 139.317 99.155 138.766C99.2483 138.206 99.3463 137.511 99.449 136.68L99.673 134.706H103.943V141.174H104.839V144.254H103.999V142H98.259V144.254H97.461V141.174ZM103.019 141.174V135.462H100.555L100.345 137.086C100.186 138.243 100.014 139.149 99.827 139.802C99.6497 140.455 99.435 140.913 99.183 141.174H103.019ZM107.291 137.856H111.379V134.706H112.317V142H111.379V138.654H107.291V142H106.353V134.706H107.291V137.856ZM115.385 140.656L119.739 134.706H120.509V142H119.571V136.162L115.301 142H114.447V134.706H115.385V140.656ZM126.962 134.706H128.026L125.268 138.234L128.264 142H127.2L124.624 138.668H123.588V142H122.65V134.706H123.588V137.926H124.54L126.962 134.706ZM132.252 142.14C131.72 142.14 131.234 142.042 130.796 141.846C130.357 141.641 129.974 141.365 129.648 141.02C129.33 140.675 129.083 140.273 128.906 139.816C128.728 139.359 128.64 138.878 128.64 138.374C128.64 137.861 128.728 137.375 128.906 136.918C129.092 136.461 129.344 136.059 129.662 135.714C129.988 135.369 130.371 135.093 130.81 134.888C131.248 134.683 131.729 134.58 132.252 134.58C132.774 134.58 133.255 134.683 133.694 134.888C134.142 135.093 134.524 135.369 134.842 135.714C135.168 136.059 135.42 136.461 135.598 136.918C135.784 137.375 135.878 137.861 135.878 138.374C135.878 138.878 135.789 139.359 135.612 139.816C135.434 140.273 135.182 140.675 134.856 141.02C134.538 141.365 134.156 141.641 133.708 141.846C133.269 142.042 132.784 142.14 132.252 142.14ZM129.606 138.388C129.606 138.799 129.676 139.181 129.816 139.536C129.956 139.881 130.142 140.189 130.376 140.46C130.618 140.721 130.898 140.927 131.216 141.076C131.542 141.225 131.888 141.3 132.252 141.3C132.616 141.3 132.956 141.225 133.274 141.076C133.6 140.917 133.885 140.707 134.128 140.446C134.37 140.175 134.562 139.863 134.702 139.508C134.842 139.153 134.912 138.771 134.912 138.36C134.912 137.959 134.842 137.581 134.702 137.226C134.562 136.862 134.37 136.549 134.128 136.288C133.885 136.017 133.6 135.807 133.274 135.658C132.956 135.499 132.616 135.42 132.252 135.42C131.888 135.42 131.547 135.499 131.23 135.658C130.912 135.807 130.632 136.017 130.39 136.288C130.147 136.559 129.956 136.876 129.816 137.24C129.676 137.595 129.606 137.977 129.606 138.388ZM141.082 134.706C141.343 134.706 141.581 134.753 141.796 134.846C142.02 134.939 142.211 135.07 142.37 135.238C142.538 135.397 142.664 135.583 142.748 135.798C142.841 136.013 142.888 136.246 142.888 136.498C142.888 136.666 142.865 136.834 142.818 137.002C142.781 137.17 142.72 137.333 142.636 137.492C142.552 137.641 142.445 137.781 142.314 137.912C142.183 138.033 142.029 138.131 141.852 138.206C142.263 138.318 142.585 138.533 142.818 138.85C143.051 139.167 143.168 139.55 143.168 139.998C143.168 140.297 143.112 140.567 143 140.81C142.897 141.053 142.748 141.263 142.552 141.44C142.365 141.617 142.141 141.757 141.88 141.86C141.619 141.953 141.334 142 141.026 142H137.512V134.706H141.082ZM140.704 137.926C141.087 137.926 141.39 137.805 141.614 137.562C141.838 137.319 141.95 137.011 141.95 136.638C141.95 136.311 141.857 136.027 141.67 135.784C141.483 135.541 141.194 135.42 140.802 135.42H138.436V137.926H140.704ZM140.928 141.286C141.124 141.286 141.301 141.249 141.46 141.174C141.628 141.099 141.768 141.001 141.88 140.88C141.992 140.749 142.081 140.605 142.146 140.446C142.211 140.287 142.244 140.119 142.244 139.942C142.244 139.606 142.127 139.307 141.894 139.046C141.67 138.785 141.357 138.654 140.956 138.654H138.436V141.286H140.928ZM148.366 143.932C148.506 144.063 148.646 144.151 148.786 144.198C148.926 144.245 149.076 144.268 149.234 144.268C149.356 144.268 149.472 144.231 149.584 144.156C149.706 144.091 149.822 143.969 149.934 143.792C150.056 143.624 150.177 143.395 150.298 143.106C150.42 142.817 150.555 142.448 150.704 142L147.526 134.706H148.506L151.208 141.118L153.714 134.706H154.624L151.222 143.204C151.082 143.568 150.938 143.871 150.788 144.114C150.648 144.357 150.499 144.553 150.34 144.702C150.191 144.851 150.028 144.954 149.85 145.01C149.682 145.075 149.496 145.108 149.29 145.108C148.87 145.108 148.548 144.996 148.324 144.772L148.366 143.932ZM159.692 142.14C159.076 142.14 158.53 141.986 158.054 141.678C157.588 141.361 157.21 140.964 156.92 140.488V144.982H155.968V134.706H156.822V136.12C157.121 135.663 157.508 135.294 157.984 135.014C158.46 134.725 158.978 134.58 159.538 134.58C160.042 134.58 160.504 134.687 160.924 134.902C161.344 135.107 161.708 135.387 162.016 135.742C162.324 136.087 162.562 136.489 162.73 136.946C162.908 137.403 162.996 137.875 162.996 138.36C162.996 138.873 162.917 139.359 162.758 139.816C162.6 140.273 162.371 140.675 162.072 141.02C161.783 141.365 161.433 141.641 161.022 141.846C160.621 142.042 160.178 142.14 159.692 142.14ZM159.426 141.3C159.818 141.3 160.173 141.216 160.49 141.048C160.817 140.88 161.092 140.661 161.316 140.39C161.55 140.11 161.727 139.797 161.848 139.452C161.97 139.097 162.03 138.733 162.03 138.36C162.03 137.968 161.96 137.595 161.82 137.24C161.68 136.885 161.489 136.573 161.246 136.302C161.004 136.031 160.714 135.817 160.378 135.658C160.052 135.499 159.697 135.42 159.314 135.42C159.072 135.42 158.815 135.471 158.544 135.574C158.283 135.667 158.036 135.798 157.802 135.966C157.578 136.125 157.382 136.316 157.214 136.54C157.056 136.755 156.958 136.983 156.92 137.226V139.466C157.032 139.727 157.172 139.97 157.34 140.194C157.518 140.418 157.714 140.614 157.928 140.782C158.152 140.941 158.39 141.067 158.642 141.16C158.894 141.253 159.156 141.3 159.426 141.3ZM167.73 142.14C167.198 142.14 166.713 142.042 166.274 141.846C165.836 141.641 165.453 141.365 165.126 141.02C164.809 140.675 164.562 140.273 164.384 139.816C164.207 139.359 164.118 138.878 164.118 138.374C164.118 137.861 164.207 137.375 164.384 136.918C164.571 136.461 164.823 136.059 165.14 135.714C165.467 135.369 165.85 135.093 166.288 134.888C166.727 134.683 167.208 134.58 167.73 134.58C168.253 134.58 168.734 134.683 169.172 134.888C169.62 135.093 170.003 135.369 170.32 135.714C170.647 136.059 170.899 136.461 171.076 136.918C171.263 137.375 171.356 137.861 171.356 138.374C171.356 138.878 171.268 139.359 171.09 139.816C170.913 140.273 170.661 140.675 170.334 141.02C170.017 141.365 169.634 141.641 169.186 141.846C168.748 142.042 168.262 142.14 167.73 142.14ZM165.084 138.388C165.084 138.799 165.154 139.181 165.294 139.536C165.434 139.881 165.621 140.189 165.854 140.46C166.097 140.721 166.377 140.927 166.694 141.076C167.021 141.225 167.366 141.3 167.73 141.3C168.094 141.3 168.435 141.225 168.752 141.076C169.079 140.917 169.364 140.707 169.606 140.446C169.849 140.175 170.04 139.863 170.18 139.508C170.32 139.153 170.39 138.771 170.39 138.36C170.39 137.959 170.32 137.581 170.18 137.226C170.04 136.862 169.849 136.549 169.606 136.288C169.364 136.017 169.079 135.807 168.752 135.658C168.435 135.499 168.094 135.42 167.73 135.42C167.366 135.42 167.026 135.499 166.708 135.658C166.391 135.807 166.111 136.017 165.868 136.288C165.626 136.559 165.434 136.876 165.294 137.24C165.154 137.595 165.084 137.977 165.084 138.388ZM176.56 134.706C176.822 134.706 177.06 134.753 177.274 134.846C177.498 134.939 177.69 135.07 177.848 135.238C178.016 135.397 178.142 135.583 178.226 135.798C178.32 136.013 178.366 136.246 178.366 136.498C178.366 136.666 178.343 136.834 178.296 137.002C178.259 137.17 178.198 137.333 178.114 137.492C178.03 137.641 177.923 137.781 177.792 137.912C177.662 138.033 177.508 138.131 177.33 138.206C177.741 138.318 178.063 138.533 178.296 138.85C178.53 139.167 178.646 139.55 178.646 139.998C178.646 140.297 178.59 140.567 178.478 140.81C178.376 141.053 178.226 141.263 178.03 141.44C177.844 141.617 177.62 141.757 177.358 141.86C177.097 141.953 176.812 142 176.504 142H172.99V134.706H176.56ZM176.182 137.926C176.565 137.926 176.868 137.805 177.092 137.562C177.316 137.319 177.428 137.011 177.428 136.638C177.428 136.311 177.335 136.027 177.148 135.784C176.962 135.541 176.672 135.42 176.28 135.42H173.914V137.926H176.182ZM176.406 141.286C176.602 141.286 176.78 141.249 176.938 141.174C177.106 141.099 177.246 141.001 177.358 140.88C177.47 140.749 177.559 140.605 177.624 140.446C177.69 140.287 177.722 140.119 177.722 139.942C177.722 139.606 177.606 139.307 177.372 139.046C177.148 138.785 176.836 138.654 176.434 138.654H173.914V141.286H176.406ZM181.229 137.856H185.317V134.706H186.255V142H185.317V138.654H181.229V142H180.291V134.706H181.229V137.856ZM189.714 139.102C189.266 138.971 188.898 138.733 188.608 138.388C188.319 138.033 188.174 137.562 188.174 136.974C188.174 136.647 188.235 136.344 188.356 136.064C188.478 135.784 188.641 135.546 188.846 135.35C189.061 135.145 189.313 134.986 189.602 134.874C189.901 134.762 190.228 134.706 190.582 134.706H193.186V142H192.248V139.228H190.666L188.818 142H187.74L189.714 139.102ZM192.248 138.402V135.532H190.624C190.428 135.532 190.237 135.565 190.05 135.63C189.873 135.695 189.714 135.793 189.574 135.924C189.434 136.045 189.322 136.195 189.238 136.372C189.154 136.549 189.112 136.75 189.112 136.974C189.112 137.403 189.238 137.749 189.49 138.01C189.752 138.271 190.092 138.402 190.512 138.402H192.248ZM86.4592 164V155.838L82.8332 162.152H82.2592L78.6332 155.838V164H77.6532V154.06H78.6612L82.5392 160.864L86.4452 154.06H87.4392V164H86.4592ZM89.7346 164V156.706H90.6866V164H89.7346ZM89.7346 155.18V153.78H90.6866V155.18H89.7346ZM95.7794 164.14C95.2754 164.14 94.8087 164.037 94.3794 163.832C93.9501 163.617 93.5814 163.337 93.2734 162.992C92.9654 162.647 92.7227 162.25 92.5454 161.802C92.3774 161.345 92.2934 160.869 92.2934 160.374C92.2934 159.861 92.3774 159.375 92.5454 158.918C92.7134 158.451 92.9421 158.045 93.2314 157.7C93.5301 157.355 93.8801 157.084 94.2814 156.888C94.6921 156.683 95.1401 156.58 95.6254 156.58C96.2414 156.58 96.7874 156.743 97.2634 157.07C97.7394 157.387 98.1127 157.775 98.3834 158.232V153.78H99.3354V162.768C99.3354 163.029 99.4474 163.16 99.6714 163.16V164C99.5314 164.028 99.4194 164.042 99.3354 164.042C99.1114 164.042 98.9154 163.972 98.7474 163.832C98.5794 163.683 98.4954 163.505 98.4954 163.3V162.586C98.2061 163.062 97.8141 163.44 97.3194 163.72C96.8247 164 96.3114 164.14 95.7794 164.14ZM95.9894 163.3C96.2227 163.3 96.4701 163.253 96.7314 163.16C97.0021 163.067 97.2541 162.941 97.4874 162.782C97.7207 162.614 97.9167 162.423 98.0754 162.208C98.2434 161.984 98.3461 161.746 98.3834 161.494V159.24C98.2901 158.988 98.1547 158.755 97.9774 158.54C97.8001 158.316 97.5947 158.12 97.3614 157.952C97.1374 157.784 96.8947 157.653 96.6334 157.56C96.3721 157.467 96.1154 157.42 95.8634 157.42C95.4714 157.42 95.1167 157.504 94.7994 157.672C94.4821 157.84 94.2067 158.064 93.9734 158.344C93.7494 158.615 93.5767 158.927 93.4554 159.282C93.3341 159.637 93.2734 160.001 93.2734 160.374C93.2734 160.766 93.3434 161.139 93.4834 161.494C93.6234 161.849 93.8147 162.161 94.0574 162.432C94.3001 162.693 94.5847 162.903 94.9114 163.062C95.2474 163.221 95.6067 163.3 95.9894 163.3ZM104.488 164.14C103.984 164.14 103.518 164.037 103.088 163.832C102.659 163.617 102.29 163.337 101.982 162.992C101.674 162.647 101.432 162.25 101.254 161.802C101.086 161.345 101.002 160.869 101.002 160.374C101.002 159.861 101.086 159.375 101.254 158.918C101.422 158.451 101.651 158.045 101.94 157.7C102.239 157.355 102.589 157.084 102.99 156.888C103.401 156.683 103.849 156.58 104.334 156.58C104.95 156.58 105.496 156.743 105.972 157.07C106.448 157.387 106.822 157.775 107.092 158.232V153.78H108.044V162.768C108.044 163.029 108.156 163.16 108.38 163.16V164C108.24 164.028 108.128 164.042 108.044 164.042C107.82 164.042 107.624 163.972 107.456 163.832C107.288 163.683 107.204 163.505 107.204 163.3V162.586C106.915 163.062 106.523 163.44 106.028 163.72C105.534 164 105.02 164.14 104.488 164.14ZM104.698 163.3C104.932 163.3 105.179 163.253 105.44 163.16C105.711 163.067 105.963 162.941 106.196 162.782C106.43 162.614 106.626 162.423 106.784 162.208C106.952 161.984 107.055 161.746 107.092 161.494V159.24C106.999 158.988 106.864 158.755 106.686 158.54C106.509 158.316 106.304 158.12 106.07 157.952C105.846 157.784 105.604 157.653 105.342 157.56C105.081 157.467 104.824 157.42 104.572 157.42C104.18 157.42 103.826 157.504 103.508 157.672C103.191 157.84 102.916 158.064 102.682 158.344C102.458 158.615 102.286 158.927 102.164 159.282C102.043 159.637 101.982 160.001 101.982 160.374C101.982 160.766 102.052 161.139 102.192 161.494C102.332 161.849 102.524 162.161 102.766 162.432C103.009 162.693 103.294 162.903 103.62 163.062C103.956 163.221 104.316 163.3 104.698 163.3ZM110.243 153.78H111.195V162.348C111.195 162.619 111.27 162.833 111.419 162.992C111.569 163.141 111.779 163.216 112.049 163.216C112.152 163.216 112.273 163.202 112.413 163.174C112.553 163.146 112.684 163.109 112.805 163.062L112.973 163.832C112.796 163.907 112.577 163.967 112.315 164.014C112.063 164.061 111.844 164.084 111.657 164.084C111.219 164.084 110.873 163.963 110.621 163.72C110.369 163.468 110.243 163.118 110.243 162.67V153.78ZM117.166 164.14C116.634 164.14 116.144 164.042 115.696 163.846C115.257 163.641 114.874 163.365 114.548 163.02C114.221 162.665 113.964 162.259 113.778 161.802C113.6 161.345 113.512 160.855 113.512 160.332C113.512 159.819 113.6 159.338 113.778 158.89C113.964 158.433 114.216 158.036 114.534 157.7C114.86 157.355 115.248 157.084 115.696 156.888C116.144 156.683 116.629 156.58 117.152 156.58C117.684 156.58 118.169 156.683 118.608 156.888C119.056 157.084 119.438 157.355 119.756 157.7C120.073 158.045 120.32 158.442 120.498 158.89C120.675 159.338 120.764 159.814 120.764 160.318C120.764 160.393 120.764 160.467 120.764 160.542C120.764 160.617 120.759 160.668 120.75 160.696H114.506C114.534 161.088 114.622 161.452 114.772 161.788C114.93 162.115 115.131 162.399 115.374 162.642C115.616 162.885 115.892 163.076 116.2 163.216C116.517 163.347 116.853 163.412 117.208 163.412C117.441 163.412 117.674 163.379 117.908 163.314C118.141 163.249 118.356 163.16 118.552 163.048C118.748 162.936 118.925 162.801 119.084 162.642C119.242 162.474 119.364 162.292 119.448 162.096L120.274 162.32C120.162 162.591 120.003 162.838 119.798 163.062C119.592 163.277 119.354 163.468 119.084 163.636C118.813 163.795 118.514 163.916 118.188 164C117.861 164.093 117.52 164.14 117.166 164.14ZM119.854 159.968C119.826 159.576 119.732 159.221 119.574 158.904C119.424 158.577 119.228 158.297 118.986 158.064C118.752 157.831 118.477 157.649 118.16 157.518C117.852 157.387 117.52 157.322 117.166 157.322C116.811 157.322 116.475 157.387 116.158 157.518C115.84 157.649 115.56 157.831 115.318 158.064C115.084 158.297 114.893 158.577 114.744 158.904C114.604 159.231 114.52 159.585 114.492 159.968H119.854ZM132.815 154.06L126.207 164H125.129L131.737 154.06H132.815ZM143.825 155.922C143.545 155.605 143.171 155.348 142.705 155.152C142.238 154.956 141.706 154.858 141.109 154.858C140.231 154.858 139.592 155.026 139.191 155.362C138.789 155.689 138.589 156.137 138.589 156.706C138.589 157.005 138.64 157.252 138.743 157.448C138.855 157.635 139.023 157.798 139.247 157.938C139.471 158.078 139.755 158.199 140.101 158.302C140.455 158.405 140.871 158.507 141.347 158.61C141.879 158.722 142.355 158.848 142.775 158.988C143.204 159.128 143.568 159.305 143.867 159.52C144.165 159.725 144.394 159.977 144.553 160.276C144.711 160.575 144.791 160.948 144.791 161.396C144.791 161.853 144.702 162.25 144.525 162.586C144.347 162.922 144.1 163.202 143.783 163.426C143.465 163.65 143.087 163.818 142.649 163.93C142.21 164.033 141.729 164.084 141.207 164.084C139.667 164.084 138.337 163.603 137.217 162.642L137.707 161.844C137.884 162.031 138.094 162.208 138.337 162.376C138.589 162.544 138.864 162.693 139.163 162.824C139.471 162.945 139.797 163.043 140.143 163.118C140.488 163.183 140.852 163.216 141.235 163.216C142.028 163.216 142.644 163.076 143.083 162.796C143.531 162.507 143.755 162.073 143.755 161.494C143.755 161.186 143.689 160.929 143.559 160.724C143.437 160.509 143.251 160.327 142.999 160.178C142.747 160.019 142.434 159.884 142.061 159.772C141.687 159.66 141.253 159.548 140.759 159.436C140.236 159.315 139.779 159.189 139.387 159.058C138.995 158.927 138.663 158.764 138.393 158.568C138.122 158.372 137.917 158.139 137.777 157.868C137.646 157.588 137.581 157.247 137.581 156.846C137.581 156.389 137.665 155.983 137.833 155.628C138.01 155.264 138.257 154.965 138.575 154.732C138.892 154.489 139.265 154.307 139.695 154.186C140.124 154.055 140.6 153.99 141.123 153.99C141.785 153.99 142.373 154.093 142.887 154.298C143.409 154.494 143.881 154.774 144.301 155.138L143.825 155.922ZM149.472 164.14C148.94 164.14 148.45 164.042 148.002 163.846C147.564 163.641 147.181 163.365 146.854 163.02C146.528 162.665 146.271 162.259 146.084 161.802C145.907 161.345 145.818 160.855 145.818 160.332C145.818 159.819 145.907 159.338 146.084 158.89C146.271 158.433 146.523 158.036 146.84 157.7C147.167 157.355 147.554 157.084 148.002 156.888C148.45 156.683 148.936 156.58 149.458 156.58C149.99 156.58 150.476 156.683 150.914 156.888C151.362 157.084 151.745 157.355 152.062 157.7C152.38 158.045 152.627 158.442 152.804 158.89C152.982 159.338 153.07 159.814 153.07 160.318C153.07 160.393 153.07 160.467 153.07 160.542C153.07 160.617 153.066 160.668 153.056 160.696H146.812C146.84 161.088 146.929 161.452 147.078 161.788C147.237 162.115 147.438 162.399 147.68 162.642C147.923 162.885 148.198 163.076 148.506 163.216C148.824 163.347 149.16 163.412 149.514 163.412C149.748 163.412 149.981 163.379 150.214 163.314C150.448 163.249 150.662 163.16 150.858 163.048C151.054 162.936 151.232 162.801 151.39 162.642C151.549 162.474 151.67 162.292 151.754 162.096L152.58 162.32C152.468 162.591 152.31 162.838 152.104 163.062C151.899 163.277 151.661 163.468 151.39 163.636C151.12 163.795 150.821 163.916 150.494 164C150.168 164.093 149.827 164.14 149.472 164.14ZM152.16 159.968C152.132 159.576 152.039 159.221 151.88 158.904C151.731 158.577 151.535 158.297 151.292 158.064C151.059 157.831 150.784 157.649 150.466 157.518C150.158 157.387 149.827 157.322 149.472 157.322C149.118 157.322 148.782 157.387 148.464 157.518C148.147 157.649 147.867 157.831 147.624 158.064C147.391 158.297 147.2 158.577 147.05 158.904C146.91 159.231 146.826 159.585 146.798 159.968H152.16ZM160.671 164H159.719V159.926C159.719 159.058 159.589 158.428 159.327 158.036C159.075 157.644 158.683 157.448 158.151 157.448C157.871 157.448 157.591 157.499 157.311 157.602C157.031 157.705 156.77 157.849 156.527 158.036C156.294 158.223 156.084 158.447 155.897 158.708C155.711 158.96 155.575 159.235 155.491 159.534V164H154.539V156.706H155.407V158.358C155.706 157.826 156.131 157.397 156.681 157.07C157.241 156.743 157.848 156.58 158.501 156.58C158.903 156.58 159.243 156.655 159.523 156.804C159.803 156.953 160.027 157.163 160.195 157.434C160.363 157.705 160.485 158.036 160.559 158.428C160.634 158.82 160.671 159.254 160.671 159.73V164ZM162.701 164V156.706H163.653V164H162.701ZM162.701 155.18V153.78H163.653V155.18H162.701ZM168.858 164.14C168.326 164.14 167.841 164.042 167.402 163.846C166.964 163.641 166.581 163.365 166.254 163.02C165.937 162.675 165.69 162.273 165.512 161.816C165.335 161.359 165.246 160.878 165.246 160.374C165.246 159.861 165.335 159.375 165.512 158.918C165.699 158.461 165.951 158.059 166.268 157.714C166.595 157.369 166.978 157.093 167.416 156.888C167.855 156.683 168.336 156.58 168.858 156.58C169.381 156.58 169.862 156.683 170.3 156.888C170.748 157.093 171.131 157.369 171.448 157.714C171.775 158.059 172.027 158.461 172.204 158.918C172.391 159.375 172.484 159.861 172.484 160.374C172.484 160.878 172.396 161.359 172.218 161.816C172.041 162.273 171.789 162.675 171.462 163.02C171.145 163.365 170.762 163.641 170.314 163.846C169.876 164.042 169.39 164.14 168.858 164.14ZM166.212 160.388C166.212 160.799 166.282 161.181 166.422 161.536C166.562 161.881 166.749 162.189 166.982 162.46C167.225 162.721 167.505 162.927 167.822 163.076C168.149 163.225 168.494 163.3 168.858 163.3C169.222 163.3 169.563 163.225 169.88 163.076C170.207 162.917 170.492 162.707 170.734 162.446C170.977 162.175 171.168 161.863 171.308 161.508C171.448 161.153 171.518 160.771 171.518 160.36C171.518 159.959 171.448 159.581 171.308 159.226C171.168 158.862 170.977 158.549 170.734 158.288C170.492 158.017 170.207 157.807 169.88 157.658C169.563 157.499 169.222 157.42 168.858 157.42C168.494 157.42 168.154 157.499 167.836 157.658C167.519 157.807 167.239 158.017 166.996 158.288C166.754 158.559 166.562 158.876 166.422 159.24C166.282 159.595 166.212 159.977 166.212 160.388ZM177.716 157.546C177.072 157.565 176.512 157.742 176.036 158.078C175.56 158.414 175.224 158.876 175.028 159.464V164H174.076V156.706H174.972V158.456C175.243 157.896 175.607 157.457 176.064 157.14C176.522 156.823 177.012 156.664 177.534 156.664C177.609 156.664 177.67 156.669 177.716 156.678V157.546Z" fill="#666666"/>
<defs>
<linearGradient id="paint0_linear" x1="108.127" y1="225.628" x2="138.131" y2="12.528" gradientUnits="userSpaceOnUse">
<stop offset="0.09375" stop-color="#744CC6"/>
<stop offset="1" stop-color="#EDE4FF"/>
</linearGradient>
</defs>
</svg>
